<?xml version="1.0" encoding="UTF-8" standalone="no"?>
<!-- Created with Inkscape (http://www.inkscape.org/) -->
<svg
   xmlns:svg="http://www.w3.org/2000/svg"
   xmlns="http://www.w3.org/2000/svg"
   version="1.0"
   width="525"
   height="650"
   id="svg2">
  <defs
     id="defs667" />
  <g
     transform="translate(-151.20312,-329.8125)"
     id="england">
    <path
       d="M 547.5,786.09375 L 546.65625,786.4375 L 543.59375,786.65625 L 544.59375,787.3125 L 544.59375,787.34375 L 543.59375,786.65625 L 543,788.3125 L 542.34375,788.8125 L 541.75,789.3125 L 540.90625,788.65625 L 540.34375,789.65625 L 537.75,790.3125 L 537.34375,791.84375 L 536.90625,791.5625 L 534.6875,792.59375 L 534.0625,792.4375 L 533.3125,792.09375 L 530.1875,794 L 529.84375,794.34375 L 529.15625,794.65625 L 527.40625,795.1875 L 524.90625,794.5 L 523.8125,795.40625 L 520.90625,793.4375 L 520.90625,796.8125 L 521.6875,799.1875 L 522.59375,801.34375 L 521.34375,803.5 L 521.65625,805.84375 L 522.3125,806.9375 L 521.84375,808.3125 L 520.9375,809.8125 L 520.5625,811.09375 L 524.0625,812.4375 L 524.25,814.40625 L 524.9375,814.1875 L 525.40625,815.1875 L 526.8125,815 L 528.65625,815.9375 L 529.0625,816.3125 L 528.84375,817.4375 L 530.9375,817.15625 L 533.15625,819.3125 L 533.84375,819.0625 L 534.59375,820.6875 L 533.09375,824.0625 L 533.15625,826.3125 L 533.59375,826.40625 L 534.8125,825.4375 L 535.9375,822.4375 L 537.75,820.5 L 538.84375,820.4375 L 538.84375,821.84375 L 540.40625,822.90625 L 540.84375,824.40625 L 540,825.15625 L 540.65625,825.90625 L 542.1875,824.34375 L 542.84375,824.59375 L 545.0625,826.6875 L 545.1875,828.90625 L 546.4375,828.90625 L 547.34375,830.40625 L 549.59375,828.75 L 550.40625,826.75 L 552.25,826.40625 L 552.3125,825.3125 L 553.15625,824.59375 L 554.1875,824.65625 L 554.75,825.5 L 555,825.09375 L 555.90625,825.5625 L 556.90625,829.59375 L 558.0625,827.84375 L 558.75,829.4375 L 561.75,829.34375 L 561.59375,826.84375 L 563.84375,825.3125 L 563.8125,823.6875 L 565.09375,823.65625 L 566.0625,820.84375 L 565.65625,818.40625 L 566.65625,818.34375 L 565.6875,816.5625 L 566.09375,814.15625 L 566.6875,814.40625 L 567.1875,812.75 L 569.25,811.5 L 570.15625,808.59375 L 569.65625,807.59375 L 569.8125,807 L 570.9375,806.5 L 570.6875,805.75 L 571.75,805.5625 L 571.34375,804.3125 L 571.90625,804.34375 L 572.15625,803.25 L 572.5,804.4375 L 573.1875,804.40625 L 573.25,802.84375 L 577.09375,801.8125 L 577.90625,801.8125 L 576.34375,799.09375 L 574.84375,799.3125 L 573.3125,795.5 L 572.25,795.3125 L 572.9375,794.5625 L 572.09375,793.5625 L 570.09375,792.0625 L 568.5,792.84375 L 568.25,792.8125 L 564.3125,793.15625 L 563.65625,793.40625 L 561.1875,794.3125 L 561,795.25 L 559.90625,795.3125 L 557.6875,794.15625 L 556.34375,792.8125 L 556.5625,791.84375 L 554,790.9375 L 553.9375,787.15625 L 547.5,786.09375 z"
       id="london"
       style="fill:#ffc8c8;stroke:#000000;stroke-width:0.5" />
    <path
       d="M 508.3125,732 L 505.8125,732.40625 L 502.84375,735.15625 L 502.0625,735.5625 L 501.8125,734.6875 L 500.59375,735.3125 L 500.0625,736.90625 L 499,736.3125 L 498.59375,737.90625 L 497.40625,737.8125 L 497.65625,739 L 494.15625,739.75 L 493.6875,741.0625 L 494.8125,741.3125 L 494.90625,742.59375 L 496.4375,743.5 L 497.5625,745.59375 L 497,746.5 L 495.4375,746.84375 L 496.15625,747.9375 L 494.90625,749.15625 L 494.3125,750.40625 L 493.65625,750.09375 L 492.4375,751.15625 L 490.9375,748.84375 L 490.1875,745.3125 L 489.40625,744.6875 L 488.34375,745.84375 L 483.34375,745.59375 L 484.40625,746.65625 L 482,746.84375 L 478,748.8125 L 477.0625,751.34375 L 478.5,751.9375 L 477.25,754.0625 L 475.25,754.5 L 474.4375,755.75 L 473.0625,756.3125 L 470,755.34375 L 467.25,756.15625 L 466.8125,755 L 467.5,752.3125 L 465.15625,748.25 L 466.15625,745.34375 L 464.75,745.15625 L 464.5625,744.40625 L 467.8125,743.15625 L 469.4375,743.25 L 463.8125,735.5 L 462.65625,739.15625 L 461.4375,739.0625 L 459.65625,740.9375 L 461.15625,741.09375 L 462.0625,742.84375 L 460.1875,743.65625 L 457.5,741.0625 L 455.59375,741.59375 L 456.0625,743.3125 L 454,742.90625 L 452.40625,746.15625 L 452.6875,747.5625 L 451.0625,754.34375 L 450.6875,754.90625 L 449.75,754.40625 L 448.6875,754.9375 L 449.25,756.09375 L 447.15625,757 L 445.8125,756.5625 L 446.40625,757.25 L 445,758.90625 L 441.34375,755.40625 L 441.59375,758 L 442.09375,758.6875 L 443.65625,758.90625 L 444.84375,760.84375 L 442.8125,762.5625 L 443.65625,765.0625 L 441.90625,765.34375 L 441.34375,767.5 L 440,768.75 L 440.75,770.4375 L 440.0625,772.15625 L 440.6875,774.0625 L 440.40625,775.5 L 437.84375,777.75 L 439.15625,779.15625 L 440.0625,782.5 L 439.4375,784.3125 L 440.15625,785.75 L 442.09375,787.25 L 442.75,788.59375 L 441.8125,789 L 440.15625,788.0625 L 439.1875,789.90625 L 439.6875,791.9375 L 441.9375,793.9375 L 441.0625,795.3125 L 441.5,796 L 439.90625,797.1875 L 439.90625,799.5 L 439.84375,799.59375 L 440.84375,801.09375 L 442.3125,800.34375 L 442.84375,800.84375 L 445.90625,806.6875 L 447.15625,805.9375 L 447.25,809.15625 L 448.9375,812.09375 L 451.34375,814.40625 L 451.1875,816.9375 L 448.5625,817.1875 L 448.15625,817.9375 L 448.75,818.6875 L 449.40625,818.5 L 449.1875,820.09375 L 452.09375,822.65625 L 453.34375,822.90625 L 453,824.34375 L 454.0625,825.3125 L 453.1875,827.3125 L 451.1875,826.3125 L 450.8125,828.75 L 451.75,830.9375 L 451.5625,831.9375 L 450.1875,832.5625 L 450.34375,834.8125 L 451.0625,834.84375 L 450.65625,836.15625 L 450.0625,836.5 L 447.8125,835.40625 L 445.75,835.6875 L 444,839.5625 L 440.09375,839.90625 L 439.84375,841.09375 L 441.5625,842.5 L 441.34375,843.84375 L 442.40625,845.9375 L 442.59375,846.3125 L 442,849.4375 L 444.5625,850.5 L 443.8125,853.25 L 444.4375,854.8125 L 444,858.8125 L 444.15625,859.75 L 446.4375,860.75 L 446.0625,861.4375 L 446.59375,862.4375 L 445.8125,862.25 L 445.40625,862.59375 L 446,863.09375 L 444.40625,863.4375 L 445.0625,865.1875 L 446.1875,865.6875 L 445.0625,867.84375 L 445.09375,867.84375 L 444.84375,868.3125 L 444,867.8125 L 442.1875,869.34375 L 441.15625,868.84375 L 440.25,868.3125 L 438.15625,865.90625 L 435.8125,865.8125 L 432.59375,864.3125 L 431.5625,864.90625 L 430.15625,862.34375 L 428.9375,862.90625 L 427.5,865.09375 L 427.5,862.6875 L 426.65625,863.4375 L 423.8125,863.65625 L 422.3125,865.34375 L 421.8125,864.5 L 421.90625,865.8125 L 424.3125,867.59375 L 427.5625,872.4375 L 429.75,870.84375 L 431.90625,871.34375 L 431.5,873.90625 L 430.9375,874.8125 L 429.75,874.65625 L 429.3125,875.40625 L 429.59375,875.75 L 428.9375,878 L 429.15625,878.84375 L 430.59375,879.1875 L 432.09375,878.1875 L 432.5,880.5625 L 433.3125,881.25 L 432.40625,881.9375 L 432.4375,883.75 L 431.84375,884.3125 L 432.5,885.59375 L 432.3125,886.0625 L 433.5625,887.5625 L 433.6875,889.09375 L 436.25,887.5 L 436.90625,889.1875 L 436.5625,890.9375 L 440.90625,890.5 L 440.15625,892.09375 L 443.65625,892.65625 L 448.8125,894.84375 L 448,894.15625 L 449.65625,893.65625 L 451.34375,892.0625 L 450.59375,891.75 L 451.6875,891.1875 L 451.0625,889.09375 L 452.15625,890.15625 L 453.40625,890.15625 L 460.4375,887.84375 L 460.90625,887.5625 L 460.34375,887 L 463.6875,886.8125 L 466.40625,883.34375 L 466.1875,882.75 L 466.3125,883.34375 L 465.5,883.25 L 465.40625,882.4375 L 465.9375,882.34375 L 464.5625,882.15625 L 464.84375,880.9375 L 464.34375,880.1875 L 463.0625,880.40625 L 463.59375,879.8125 L 461.9375,879.1875 L 458.8125,874.6875 L 454.65625,873.0625 L 455.1875,872.59375 L 454.9375,871.09375 L 455.65625,872.9375 L 456.75,873.75 L 457.5625,873.3125 L 457.25,872.84375 L 457.3125,872.875 L 457.5625,873.3125 L 460.25,875.25 L 460.34375,874.75 L 460.65625,876 L 461.09375,873.40625 L 462.25,872.8125 L 461.34375,873.6875 L 461.4375,875.3125 L 462.6875,876.3125 L 466.3125,879.6875 L 466.0625,876.75 L 467.1875,876.34375 L 466.8125,880.59375 L 471.09375,883.09375 L 473.1875,883.90625 L 475.0625,886.15625 L 478.34375,887.8125 L 480.34375,886.0625 L 478.34375,886.59375 L 480,885.3125 L 479.5,884.4375 L 478.59375,884.6875 L 479.5,884.1875 L 477.9375,882.09375 L 477.15625,882.34375 L 477.4375,881 L 475.84375,880.65625 L 477.34375,880 L 479.1875,880.84375 L 480.1875,880.9375 L 479.84375,880.0625 L 480.84375,879.8125 L 480.65625,880.75 L 481.84375,881.75 L 482.1875,882.15625 L 481.09375,881.9375 L 481.65625,883.15625 L 481.84375,883.8125 L 480.34375,884.15625 L 480.5,885.8125 L 481.9375,887.3125 L 486,886.1875 L 485.9375,885.1875 L 485.0625,885.84375 L 485,883.75 L 485,881.3125 L 485.5,880.9375 L 486.34375,881.9375 L 486.40625,879.0625 L 486.65625,880.09375 L 487.9375,880 L 489.3125,880.9375 L 489.8125,880.15625 L 492.6875,880 L 492.5625,881.40625 L 493.5625,881.0625 L 494.09375,881.65625 L 494,880.3125 L 495.3125,880.4375 L 495.5,882.65625 L 496.59375,883.40625 L 497.34375,881.6875 L 496.9375,880.25 L 497.75,880.3125 L 497.65625,881.59375 L 498.34375,881.59375 L 497.15625,883.15625 L 498.9375,884.09375 L 500.5625,882.6875 L 500.90625,880.90625 L 501.34375,881.25 L 500.15625,884.09375 L 498.84375,884.6875 L 496.5,883.84375 L 494.6875,886.65625 L 493.9375,886.84375 L 494.15625,885.90625 L 493.84375,886.84375 L 499.0625,889.6875 L 503.0625,893 L 505.1875,889.1875 L 504.65625,889.90625 L 503.90625,888.75 L 502.90625,888.9375 L 503.25,888 L 504.6875,887.84375 L 505.3125,889.09375 L 508.8125,886.90625 L 519.8125,884.25 L 521.15625,884 L 527.15625,883.75 L 532.34375,882.75 L 538,880.9375 L 540.09375,881.09375 L 542.3125,880.75 L 546.34375,881.25 L 547.8125,881.5625 L 549.9375,882.6875 L 550.90625,882.25 L 554.65625,883.5 L 559.4375,885.1875 L 561.4375,885.90625 L 561.40625,885.1875 L 565.90625,887.6875 L 567.75,887.5625 L 572.4375,889.5625 L 575.5625,889.59375 L 580.8125,882.8125 L 583.40625,880.40625 L 592,877.59375 L 599.25,875.5625 L 601.8125,874.1875 L 603.1875,874.0625 L 607.40625,869.40625 L 610.4375,867.6875 L 610.25,867.3125 L 616,867.9375 L 624.25,868.9375 L 624.75,868.1875 L 623.34375,862.8125 L 625.1875,856.75 L 630.5625,852.0625 L 638.75,850.34375 L 638.09375,849.9375 L 640.40625,847.6875 L 643.65625,847.3125 L 645.90625,845.9375 L 647.6875,846.0625 L 646.84375,844.9375 L 651.15625,842.5625 L 652.5,839.9375 L 652.34375,832.34375 L 652.1875,831.90625 L 649.65625,824.0625 L 648.25,825.25 L 648,825.15625 L 647.9375,824.5 L 649.15625,823.84375 L 649.25,822.59375 L 650.0625,822.0625 L 652.5625,822.5625 L 653.15625,821.6875 L 653.3125,822.3125 L 654.40625,818.75 L 654.75,816.65625 L 654.15625,815.5625 L 653.65625,815.34375 L 652.9375,814.90625 L 645.5,816.6875 L 639.3125,817.09375 L 629.65625,818.75 L 626.3125,819.15625 L 624.90625,820.75 L 620.75,821.5625 L 617.59375,822 L 617.0625,822.65625 L 617.15625,821.84375 L 614.90625,820.6875 L 611.40625,820.5625 L 608.09375,820.1875 L 607.40625,821.1875 L 607.8125,818 L 605.15625,816.25 L 604.4375,814.8125 L 605.4375,814.15625 L 604.3125,814.09375 L 605.1875,813.65625 L 603.0625,814.15625 L 603.75,815.34375 L 603.09375,815.5 L 603.5625,816.75 L 604.6875,817.40625 L 604.40625,818 L 603.15625,818.5 L 603.65625,817.09375 L 602.5625,817.1875 L 601.4375,819.3125 L 600.65625,817.3125 L 599.3125,817 L 598.9375,817.65625 L 597.90625,817.75 L 597.4375,818.8125 L 596.25,818.0625 L 593.90625,817.1875 L 592.1875,815.5625 L 592.15625,815.625 L 591.09375,817 L 592.0625,815.25 L 597.1875,814.59375 L 598.1875,813.90625 L 597.6875,813.34375 L 598.8125,811.40625 L 600.25,811 L 600.9375,811.59375 L 601.15625,811.0625 L 601.75,812.6875 L 604.15625,812.34375 L 604.8125,811.5 L 604.5625,809.6875 L 603.09375,808.34375 L 601.15625,808.4375 L 600.34375,807.90625 L 597.3125,808.3125 L 595.25,807.34375 L 595.0625,807.90625 L 594.5,807.40625 L 593.09375,807.75 L 592.59375,807.15625 L 587.25,807.84375 L 586.59375,809.5625 L 587.25,809.84375 L 586.34375,809.9375 L 586.6875,810.84375 L 581.5,812.3125 L 577.59375,811.65625 L 576.90625,810.09375 L 574.09375,811.40625 L 570.15625,808.59375 L 569.25,811.5 L 567.1875,812.75 L 566.6875,814.40625 L 566.09375,814.15625 L 565.6875,816.5625 L 566.65625,818.34375 L 565.65625,818.40625 L 566.0625,820.84375 L 565.09375,823.65625 L 563.8125,823.6875 L 563.84375,825.3125 L 561.59375,826.84375 L 561.75,829.34375 L 558.75,829.4375 L 558.09375,827.84375 L 556.90625,829.59375 L 555.90625,825.5625 L 555,825.09375 L 554.8125,825.5 L 554.1875,824.65625 L 553.15625,824.59375 L 552.3125,825.3125 L 552.25,826.40625 L 550.40625,826.75 L 549.59375,828.75 L 547.34375,830.40625 L 546.4375,828.90625 L 545.1875,828.90625 L 545.0625,826.6875 L 542.84375,824.59375 L 542.1875,824.34375 L 540.65625,825.90625 L 540,825.15625 L 540.84375,824.40625 L 540.4375,822.90625 L 538.84375,821.84375 L 538.84375,820.4375 L 537.75,820.5 L 535.9375,822.4375 L 534.8125,825.4375 L 533.59375,826.40625 L 533.15625,826.3125 L 533.09375,824.0625 L 534.59375,820.6875 L 533.84375,819.0625 L 533.15625,819.3125 L 530.9375,817.15625 L 528.84375,817.4375 L 529.0625,816.3125 L 528.65625,815.9375 L 526.8125,815 L 525.40625,815.1875 L 524.9375,814.1875 L 524.25,814.40625 L 524.0625,812.4375 L 520.5625,811.09375 L 520.9375,809.8125 L 521.84375,808.3125 L 522.3125,806.9375 L 521.65625,805.84375 L 521.34375,803.5 L 522.59375,801.34375 L 521.6875,799.1875 L 520.90625,796.8125 L 519.40625,796.25 L 518,797.6875 L 519.34375,796.25 L 518.15625,792.6875 L 518.6875,791.4375 L 518.25,790.1875 L 519.25,790.4375 L 519.34375,789.40625 L 519.75,789.65625 L 520.40625,788.8125 L 520,788.0625 L 519.0625,788.1875 L 519.09375,787.84375 L 517.59375,788.0625 L 517.6875,786.25 L 516.34375,784.65625 L 517.1875,783.40625 L 516.9375,782.1875 L 516.3125,781.59375 L 515.6875,782.0625 L 514.6875,780.3125 L 512.9375,780.84375 L 508.8125,778.59375 L 507.59375,776 L 507.90625,775.15625 L 506.25,772.9375 L 505.25,773.25 L 503.75,770.65625 L 505.65625,768.9375 L 507.0625,768.84375 L 507.6875,769.8125 L 507.15625,770.6875 L 509.09375,773.40625 L 510.4375,773.65625 L 511.40625,772.9375 L 514.90625,774.3125 L 516.5625,771.59375 L 516.8125,772.09375 L 517.4375,772.3125 L 517.84375,771.5625 L 514.65625,767.34375 L 512.9375,766.8125 L 512.15625,765.75 L 510,765.65625 L 508.5625,764.0625 L 507.25,764.25 L 506.5625,763.25 L 507.8125,759.65625 L 508.65625,759.4375 L 508.5,758.09375 L 509.1875,758.15625 L 509.75,756.65625 L 510.25,756.3125 L 509.09375,753.3125 L 510.3125,752.0625 L 509.8125,751.25 L 510.5,750.6875 L 510.3125,749.1875 L 508.5625,747.9375 L 511,744.40625 L 512.6875,743.15625 L 513.59375,741.09375 L 512.5,738.59375 L 510.65625,738.15625 L 510.1875,736.5625 L 510.90625,736.3125 L 511.0625,733.40625 L 510,732.65625 L 508.3125,732 z M 466.40625,883.34375 L 466.5,883.5625 L 466.6875,883.40625 L 466.75,883.25 L 466.8125,882.84375 L 466.59375,883.4375 L 466.40625,883.34375 z M 448.8125,894.84375 L 449.84375,895.3125 L 449.40625,895 L 448.8125,894.84375 z M 606.1875,811.0625 L 606.5625,812.15625 L 605.6875,813.65625 L 606.5625,814.5 L 605.5625,815.1875 L 604.8125,814.65625 L 605.5,816.0625 L 607.84375,817.40625 L 608.0625,819.4375 L 610.59375,819.25 L 610.65625,819.25 L 613.09375,819.90625 L 614.34375,819.75 L 617.0625,820.75 L 620.65625,818.5 L 617.09375,813.9375 L 611.8125,813.15625 L 609.4375,811.75 L 606.1875,811.0625 z M 600.90625,813.8125 L 600.5625,814.34375 L 602.5625,814.65625 L 602.1875,813.8125 L 600.90625,813.8125 z M 602.6875,815 L 601,815.5625 L 601.5,816.5625 L 603.09375,816.5625 L 602.6875,815 z M 594.0625,815.75 L 593.84375,816.3125 L 595.34375,816.1875 L 594.0625,815.75 z M 490.15625,881 L 488.9375,881.84375 L 488.4375,885 L 486.34375,885.25 L 486.59375,886.3125 L 492.4375,887.1875 L 492.4375,886.15625 L 490.9375,886.8125 L 491.4375,886.15625 L 490.40625,886.09375 L 491.34375,884.65625 L 490.1875,884.4375 L 489.90625,883.8125 L 490.59375,883.75 L 491.0625,883.9375 L 491.4375,882.15625 L 490.15625,881 z M 492.1875,881.4375 L 492.0625,883.0625 L 494.1875,884.34375 L 494.4375,882.84375 L 494.15625,881.6875 L 492.1875,881.4375 z M 481.34375,882.59375 L 481.0625,883.40625 L 481.5625,883.25 L 481.34375,882.59375 z M 467.3125,888.65625 L 465.90625,888.90625 L 463.65625,891.75 L 459.75,893.25 L 461.40625,893.5625 L 460.1875,893.75 L 459.4375,894.9375 L 459.59375,893.75 L 459,893.34375 L 459.34375,893.3125 L 458.65625,893.09375 L 455.59375,895 L 453.4375,895.40625 L 453.1875,895.6875 L 453.25,895.3125 L 452,895.3125 L 450.1875,898.4375 L 447.5625,900.15625 L 454.59375,899.6875 L 457.1875,902.1875 L 461.3125,904 L 467.90625,909.65625 L 475.5,907.09375 L 477.25,901.3125 L 479,900 L 481.5,899.59375 L 483.40625,897.5625 L 482.5625,896.40625 L 480.75,896.5 L 481.09375,895.84375 L 481.40625,896 L 480.59375,893.4375 L 477.09375,892.1875 L 473.5625,892.0625 L 472.9375,892.5 L 473.34375,891.75 L 471.59375,891.15625 L 471,890.25 L 469,888.6875 L 467.90625,888.90625 L 468.5625,892.6875 L 467.3125,888.65625 z M 449.8125,894.6875 L 449.9375,895.34375 L 450.09375,895.40625 L 449.8125,894.6875 z"
       id="south-east"
       style="fill:#ffc8c8;stroke:#000000;stroke-width:0.5" />
    <path
       d="M 434.4375,741.8125 L 433,742.5 L 431.4375,745.5 L 431,744.75 L 430.15625,746.15625 L 429.15625,745.4375 L 428.6875,746.1875 L 427.3125,746.4375 L 428.0625,747.1875 L 428.0625,748.25 L 430,749.34375 L 430.59375,750.75 L 429.6875,753.34375 L 428.15625,752.75 L 424.65625,749.25 L 423.4375,750.84375 L 422.09375,750 L 419.90625,750.1875 L 416.25,753.59375 L 415.5,753.6875 L 414.75,752.5 L 413.09375,752.9375 L 411.3125,752.4375 L 409.25,754.15625 L 408.65625,753.40625 L 409.40625,751.0625 L 411,749.9375 L 409.8125,749.0625 L 407.9375,748.59375 L 407.3125,748.90625 L 406.65625,749.5 L 406.90625,751.65625 L 406.1875,752 L 407.75,754.5 L 406.65625,754.15625 L 406.34375,755.15625 L 403.9375,754.59375 L 401.84375,757.75 L 400.5625,757.5 L 398.5625,757.6875 L 397.75,756.65625 L 396.8125,756.6875 L 396.84375,753.4375 L 395.0625,752.59375 L 395.15625,751.75 L 392.25,752.75 L 391.90625,754.4375 L 390.9375,754.6875 L 389.34375,754.34375 L 389.5,752.59375 L 387.59375,752.4375 L 387.4375,751.4375 L 386.5625,751.5625 L 385.6875,752.84375 L 387.0625,754.59375 L 385.4375,756.0625 L 385.59375,757.9375 L 385,758.3125 L 387.40625,759.3125 L 387.34375,761.90625 L 388.5625,762.90625 L 389.0625,765.3125 L 387.3125,765.75 L 385.84375,767.09375 L 384.4375,766.5625 L 382.84375,769.1875 L 379.5625,769.09375 L 379.40625,770.40625 L 378.15625,769.65625 L 376.5,771.5625 L 375.75,771.09375 L 374.8125,772.9375 L 374.0625,773.3125 L 374.15625,774.59375 L 372.90625,775.40625 L 373.4375,776.40625 L 372.6875,779.15625 L 373.90625,780.8125 L 373.1875,782.6875 L 372.15625,783.25 L 373.4375,786.0625 L 372.40625,786.5625 L 373.34375,787.25 L 373.1875,788.75 L 374.25,789.5625 L 372.4375,790.09375 L 372.25,790.75 L 373.59375,790.5625 L 372.65625,792.5 L 373.34375,792.6875 L 373.5,794.3125 L 374.0625,795.1875 L 373.4375,796.4375 L 376.09375,797.0625 L 373.65625,800.5 L 372.90625,803.6875 L 369.84375,807.59375 L 371.15625,809.40625 L 369.09375,808.1875 L 368.84375,809.34375 L 366.0625,809.0625 L 364.25,810.09375 L 358.75,815.84375 L 358.25,817.9375 L 356.09375,819.75 L 354.59375,820.25 L 354.75,819.5 L 351.75,820.5 L 352.9375,821.09375 L 353,822 L 352.65625,823.1875 L 350.75,824 L 351.5625,824.75 L 351.3125,828.8125 L 350.75,827.84375 L 347.9375,826.9375 L 349.59375,827.90625 L 348.8125,833.84375 L 350.09375,836.15625 L 350.34375,838.3125 L 350.34375,838.3125 L 349.15625,840.09375 L 348.3125,841.84375 L 346.65625,842.4375 L 348.15625,841.25 L 348.90625,839.0625 L 348.25,839 L 346.65625,840.65625 L 345,840.84375 L 341.15625,839.75 L 337.8125,840.90625 L 336.3125,840.6875 L 331.15625,843 L 322.40625,842.5625 L 319.6875,839.75 L 317.90625,839.65625 L 316.15625,837.90625 L 312.9375,836.90625 L 310.5,836.84375 L 307.5625,838.5 L 306.84375,837.6875 L 300.6875,836.5 L 297.40625,835.9375 L 296.25,835 L 294.40625,836.59375 L 291.9375,836.09375 L 289,837.25 L 286.6875,836.3125 L 284.4375,837.65625 L 279.59375,837.84375 L 278.90625,838.84375 L 275.5625,837.59375 L 274.90625,838.3125 L 273.1875,838.0625 L 269.3125,839.59375 L 267.6875,839.1875 L 266.9375,840.34375 L 265.65625,840.5625 L 266.9375,841.65625 L 266.5,844.5625 L 266.0625,845.3125 L 263.34375,845.40625 L 264.90625,846.5 L 264.75,847.90625 L 265.9375,848.25 L 266.34375,852.84375 L 268,854.0625 L 268.65625,853.90625 L 268.6875,855.84375 L 267.40625,857.46875 L 267.9375,855.1875 L 266.59375,855.4375 L 266.75,854.40625 L 266.09375,854 L 264.65625,856.5625 L 263.25,856.90625 L 260.1875,861.0625 L 257.5,862 L 255.0625,861.84375 L 251.65625,859.15625 L 248.5625,858.1875 L 244.75,858 L 244.0625,859.4375 L 244.0625,864.1875 L 242.6875,867 L 243,868.1875 L 242.40625,868.4375 L 241.3125,870.84375 L 241.9375,878.15625 L 242.59375,878.9375 L 241.75,879.0625 L 241.34375,884.1875 L 236.3125,887.5 L 236.15625,888.4375 L 234.84375,888.5625 L 234.6875,891.09375 L 232.8125,892.34375 L 232.8125,893.25 L 229.59375,894.4375 L 228.9375,895.8125 L 228.4375,895.1875 L 226.90625,895.90625 L 226.65625,897.5625 L 227.1875,897.75 L 226.25,901.0625 L 224.40625,903.65625 L 221.84375,904.1875 L 220.6875,903.4375 L 219.25,903.75 L 219.40625,904.4375 L 218.09375,905.15625 L 216.5,904.84375 L 215.84375,903.6875 L 214.65625,904.5 L 216,905.75 L 214.84375,906.9375 L 215.09375,909.09375 L 214.5,908.59375 L 213.5,907.8125 L 213.59375,906.40625 L 211.09375,909.25 L 207.4375,908.3125 L 207.1875,908.75 L 208.25,909.5 L 207.75,912.09375 L 208.34375,912.75 L 207.5625,912.6875 L 206.5,913.90625 L 207.3125,914.34375 L 207.15625,915.90625 L 206.59375,919.6875 L 205.59375,921.5 L 204.84375,921.5625 L 205.65625,921.8125 L 203.5625,922.84375 L 202.5,921.59375 L 202.3125,922.9375 L 200.59375,923.0625 L 201.75,923.4375 L 200.5625,923.9375 L 199.9375,923.40625 L 199.84375,924.1875 L 199.0625,923.75 L 199.25,925.5625 L 198.3125,925.4375 L 199,927 L 198.34375,930.1875 L 196.40625,930.6875 L 194.9375,932.84375 L 192.5,932.9375 L 192.4375,934.9375 L 191.1875,936.90625 L 190.90625,936.90625 L 189.3125,937.6875 L 188.4375,939.0625 L 187.5,938.90625 L 185.09375,941.25 L 182.5,941.34375 L 182.0625,940.65625 L 180.90625,941 L 180.75,943 L 177.9375,946.09375 L 177.8125,945.9375 L 175.5625,945.1875 L 175.1875,943.0625 L 174.5,943.5 L 173.59375,942.90625 L 170.75,943.15625 L 166.9375,946 L 166.3125,945.4375 L 164.15625,948.15625 L 161.09375,948.15625 L 158.25,952.3125 L 159.59375,956.40625 L 157.5,958.59375 L 157.84375,959.84375 L 159.09375,960.34375 L 159.5625,962.15625 L 160.40625,962.5625 L 162.1875,961.59375 L 162.9375,962.0625 L 164.25,960.90625 L 167.1875,961 L 168.25,959.84375 L 168.84375,960.1875 L 170.5,957.09375 L 169.4375,955.09375 L 170.75,954.34375 L 171.34375,953.0625 L 175.59375,953.5625 L 177.90625,955.65625 L 177.84375,956.5625 L 178.84375,956.25 L 178.65625,955.84375 L 181.0625,956.1875 L 182.4375,957.59375 L 184.15625,957.34375 L 185.34375,958.5 L 185.6875,958.1875 L 188.15625,961.40625 L 187.9375,962.84375 L 189.34375,964 L 188.9375,964.4375 L 189.65625,965.3125 L 188.8125,967.59375 L 189.65625,968.0625 L 190.15625,970.40625 L 192,970.9375 L 192.1875,972.1875 L 194.34375,971.90625 L 194.34375,970.15625 L 196.15625,967.3125 L 199,967.0625 L 200.4375,967.6875 L 201.1875,966.4375 L 200.90625,965.25 L 202.84375,964.40625 L 203.75,962.5 L 203.09375,960.84375 L 202.3125,960.6875 L 202.59375,958.84375 L 200,958.40625 L 199.5,957.5625 L 198.4375,958.09375 L 198.09375,957.5 L 197.34375,957.6875 L 197.5625,958.6875 L 197.09375,957.8125 L 195.34375,958.5 L 193.4375,958 L 196.8125,957.75 L 196.09375,957.0625 L 196.5625,955.65625 L 196.5625,957.40625 L 197.90625,957.1875 L 198.40625,955.84375 L 198.90625,956 L 198.15625,957.09375 L 200.1875,956.75 L 201,957.25 L 202.3125,956.25 L 201.34375,954.09375 L 203.40625,952.5 L 204.40625,952.0625 L 205.25,952.5625 L 206.5625,950.3125 L 206.9375,952.15625 L 207.5,953.1875 L 209.5,951.90625 L 210.25,948.25 L 211.4375,946.4375 L 213.15625,946 L 214.15625,947.1875 L 218.25,943.0625 L 221.5,943.75 L 222.25,945.09375 L 222.6875,943.84375 L 223.9375,943.09375 L 223.65625,942.1875 L 224.9375,941.34375 L 223.6875,940.40625 L 223.6875,939.5 L 224.34375,938.5625 L 224.15625,937.34375 L 225.40625,936.25 L 226.1875,936.4375 L 225.3125,934.0625 L 226.0625,932.9375 L 228.1875,932.3125 L 228.21875,932.25 L 229.59375,932.0625 L 229.6875,931.15625 L 230.40625,931.25 L 231.3125,932.34375 L 231,934.3125 L 231.84375,935 L 232.25,934 L 233.25,934 L 234.8125,932.40625 L 234.90625,932.84375 L 235.4375,932.90625 L 234.3125,933.34375 L 234.65625,933.9375 L 236.5,933.5625 L 237.0625,934.09375 L 238.5,933.1875 L 241.25,934.25 L 243.84375,933.59375 L 244.15625,932.84375 L 245.8125,933.40625 L 247.5,931.84375 L 246.59375,930.6875 L 246.9375,929.90625 L 247.5,931.5 L 248.5,930.4375 L 252,930.0625 L 259.25,931.1875 L 263.15625,934.15625 L 263.1875,936.3125 L 264.1875,935.59375 L 265.75,935.6875 L 264.90625,934 L 267.09375,933 L 267.0625,931.25 L 264.40625,932.4375 L 265.25,931.09375 L 264.65625,930.5625 L 265.4375,929.6875 L 265.25,928.5625 L 264.5,928.25 L 265,927.9375 L 262.8125,927.5 L 263.3125,927.34375 L 264.8125,925.8125 L 264.15625,925 L 264.5625,923.84375 L 263.6875,923.84375 L 265.34375,922.8125 L 265.40625,921.6875 L 266.34375,923 L 267.40625,924.25 L 267.8125,923.75 L 268.40625,922.8125 L 267.84375,923.75 L 267.40625,924.34375 L 267.65625,924.59375 L 265.75,924.09375 L 264.8125,926.75 L 265.5625,927.5625 L 266.40625,929.25 L 266.1875,929.8125 L 266.09375,930.3125 L 267.3125,930.6875 L 267.34375,931.15625 L 268.34375,930.5 L 269.6875,930.84375 L 269.84375,930.0625 L 270.9375,931 L 272.09375,928.6875 L 273.25,928.34375 L 271.4375,930.5625 L 271.1875,931.5 L 271.9375,931.84375 L 269.59375,931.25 L 270.15625,932.90625 L 270.59375,935.65625 L 276.5625,936.5 L 273.6875,937.09375 L 275.3125,938.5625 L 277.40625,938.5625 L 277.90625,937.6875 L 279.4375,937.1875 L 281.65625,937.59375 L 282.65625,936.75 L 282.5,937.59375 L 282.8125,938.5625 L 284.25,938.5 L 286.1875,940.1875 L 287.1875,940.25 L 287.0625,941.09375 L 288.6875,942.5625 L 288.5625,944.5625 L 287.6875,944.59375 L 291.0625,947.40625 L 293.3125,948.1875 L 294,947.59375 L 293.9375,946.09375 L 295.40625,945.40625 L 294.8125,947 L 297,947.8125 L 298.09375,949.1875 L 301,947.0625 L 302.6875,947.59375 L 303.84375,947.15625 L 302.5625,945.5625 L 304,939.5 L 306.0625,936.65625 L 308.40625,935.90625 L 309.5,934.84375 L 308.90625,933.40625 L 310.84375,934.90625 L 312.6875,933.6875 L 312.5,932.40625 L 313.5,930.15625 L 314.3125,929.9375 L 313.8125,929.09375 L 315.3125,927.90625 L 313.15625,927.25 L 313.6875,927.90625 L 313.25,928.34375 L 312.6875,927.5625 L 310.25,927.09375 L 310.1875,923.1875 L 311.75,921 L 313.09375,922 L 315.5625,921 L 313.1875,918.9375 L 313.6875,915.15625 L 314.65625,912.84375 L 313.6875,912.3125 L 314.65625,912.4375 L 316.59375,910.15625 L 316.9375,908.1875 L 319.8125,904.9375 L 318.4375,905.9375 L 318,900.9375 L 316.84375,899.09375 L 316.84375,897.15625 L 316.90625,897.15625 L 317.6875,897.9375 L 318.15625,896.90625 L 318.25,897.5 L 318.1875,898.15625 L 320.4375,902.9375 L 319.65625,904.1875 L 324.15625,905.5625 L 325.0625,904.0625 L 328.4375,902.84375 L 330.1875,899.5625 L 331.65625,898.3125 L 336.6875,897.15625 L 342.75,897.1875 L 343.90625,895.40625 L 348.3125,895.8125 L 352.6875,894.1875 L 353.09375,893.75 L 355.6875,892.09375 L 366,894.6875 L 375.25,900.40625 L 383.8125,907.34375 L 376.34375,901.0625 L 379.90625,902.6875 L 380.0625,903.59375 L 380.9375,903.59375 L 380.6875,904.25 L 382.84375,905.0625 L 384.90625,907.9375 L 384.90625,908 L 386,908.8125 L 387.5,906.90625 L 388.75,907.4375 L 387.4375,906.59375 L 388.15625,905.9375 L 387.34375,905.59375 L 388.0625,904.25 L 389.1875,903.1875 L 390.3125,903.40625 L 395.3125,903.5625 L 396.3125,904.3125 L 402.40625,905.34375 L 405.0625,904.59375 L 405.8125,905.5 L 407.84375,905.40625 L 408.65625,906.1875 L 409.4375,905.75 L 410.84375,907.1875 L 414.40625,907.84375 L 415,909.6875 L 417,908.3125 L 422.1875,907.75 L 422.6875,906.3125 L 421.84375,906.09375 L 421.84375,905.15625 L 424.09375,902.5 L 422.34375,902.09375 L 422.84375,899 L 422.3125,898.34375 L 420.59375,900 L 419.84375,899.5 L 420.34375,898.6875 L 419.15625,899.8125 L 418.9375,898.75 L 418.5625,898.59375 L 418.0625,898.0625 L 417.3125,898.15625 L 417,898.59375 L 417.09375,897.84375 L 415.5625,899 L 415.1875,898.59375 L 417.15625,897.5625 L 416.5625,895.9375 L 417.59375,896 L 417,895.34375 L 415.0625,896.1875 L 414.25,897.65625 L 413.15625,897.59375 L 413.8125,895.65625 L 414.84375,895.5625 L 413.84375,895.3125 L 414.4375,894.40625 L 415.9375,894.65625 L 415.90625,893.3125 L 415.5,893.6875 L 415.15625,893.0625 L 417.09375,893 L 416.09375,894.15625 L 419.75,895.3125 L 418.0625,893.3125 L 418.09375,892.5625 L 419.09375,892.09375 L 419.9375,894.0625 L 419.40625,894.8125 L 421.6875,894.5 L 422.4375,895.1875 L 422.15625,895.6875 L 423.4375,896.34375 L 422.5,898.09375 L 425.6875,895.15625 L 429.65625,894.0625 L 430.5625,893.90625 L 436.25,894.9375 L 436.8125,893.8125 L 436.90625,893.4375 L 438.9375,892.15625 L 440.15625,892.09375 L 440.90625,890.5 L 436.5625,890.9375 L 436.90625,889.1875 L 436.25,887.5 L 433.6875,889.09375 L 433.5625,887.5625 L 432.3125,886.0625 L 432.5,885.59375 L 431.84375,884.3125 L 432.4375,883.75 L 432.40625,881.9375 L 433.3125,881.25 L 432.5,880.5625 L 432.09375,878.1875 L 430.59375,879.1875 L 429.15625,878.84375 L 428.9375,878 L 429.59375,875.75 L 429.3125,875.4375 L 429.3125,875.40625 L 429.75,874.65625 L 430.9375,874.8125 L 431.5,873.90625 L 431.90625,871.34375 L 429.75,870.84375 L 427.5625,872.4375 L 424.3125,867.59375 L 421.90625,865.75 L 421.8125,864.5 L 422.3125,865.34375 L 423.8125,863.65625 L 426.65625,863.4375 L 427.5,862.6875 L 427.5,865.09375 L 428.9375,862.90625 L 430.15625,862.34375 L 431.5625,864.9375 L 432.59375,864.34375 L 435.8125,865.8125 L 438.1875,865.90625 L 440.25,868.3125 L 441.15625,868.84375 L 442.1875,869.34375 L 444.0625,867.8125 L 444.84375,868.3125 L 445.09375,867.84375 L 446.1875,865.6875 L 445.0625,865.1875 L 444.40625,863.4375 L 446,863.09375 L 445.40625,862.59375 L 445.8125,862.25 L 446.59375,862.4375 L 446.0625,861.4375 L 446.4375,860.75 L 444.15625,859.75 L 444,858.8125 L 444.4375,854.8125 L 443.8125,853.25 L 444.5625,850.5 L 442,849.4375 L 442.59375,846.3125 L 442.40625,845.9375 L 441.34375,843.84375 L 441.59375,842.5 L 439.84375,841.09375 L 440.15625,839.90625 L 444,839.5625 L 445.75,835.6875 L 447.8125,835.40625 L 450,836.5625 L 450.65625,836.15625 L 451.0625,834.84375 L 450.34375,834.8125 L 450.1875,832.59375 L 451.5625,831.9375 L 451.75,830.9375 L 450.75,828.75 L 451.15625,826.3125 L 453.1875,827.3125 L 454,825.3125 L 453,824.34375 L 453.34375,822.90625 L 452.09375,822.65625 L 449.1875,820.09375 L 449.40625,818.5 L 448.75,818.6875 L 448.15625,817.9375 L 448.5625,817.1875 L 451.15625,816.9375 L 451.34375,814.40625 L 448.9375,812.09375 L 447.25,809.15625 L 447.15625,805.9375 L 445.90625,806.6875 L 442.84375,800.84375 L 442.3125,800.34375 L 440.84375,801.09375 L 439.84375,799.59375 L 439.90625,799.5 L 439.90625,797.1875 L 441.5,796 L 441.0625,795.3125 L 441.9375,793.9375 L 439.6875,791.9375 L 439.1875,789.90625 L 440.15625,788.09375 L 441.8125,789 L 442.6875,788.59375 L 442.09375,787.25 L 440.15625,785.75 L 439.4375,784.3125 L 440.0625,782.5 L 439.09375,779.15625 L 437.84375,777.8125 L 440.34375,775.5 L 440.6875,774.0625 L 440.0625,772.15625 L 440.75,770.4375 L 440,768.8125 L 441.34375,767.5 L 441.90625,765.34375 L 443.65625,765.0625 L 442.8125,762.5625 L 444.8125,760.84375 L 443.65625,758.90625 L 442.09375,758.6875 L 441.59375,758 L 441.34375,755.40625 L 441.09375,754.84375 L 444.5625,750.84375 L 444.15625,749.8125 L 441.5,750.65625 L 439.4375,749.75 L 439.8125,748.40625 L 438.6875,747.5625 L 438.90625,746.09375 L 438.15625,746.8125 L 436.9375,746.0625 L 437.09375,743.15625 L 436.4375,744.09375 L 435.65625,743.6875 L 434.4375,741.8125 z M 418.0625,898.0625 L 418.09375,898.0625 L 418.15625,898.0625 L 418.1875,898.0625 L 418.15625,898 L 418.09375,897.9375 L 418,898 L 418.0625,898.0625 z M 434.8125,892.84375 L 435.1875,893.59375 L 435.6875,892.84375 L 436.6875,893.59375 L 436.6875,893.8125 L 436.4375,894.4375 L 435.25,894.15625 L 434.8125,892.84375 z M 420.59375,896.5 L 419.65625,897 L 421.09375,897.6875 L 421.90625,897.1875 L 420.59375,896.5 z M 417.3125,896.84375 L 417.5625,897.84375 L 418,897.5 L 417.3125,896.84375 z M 412.5625,897.40625 L 412,898.34375 L 411.96875,898.3125 L 412.5625,897.40625 z M 383.9375,907.3125 L 387.59375,911.40625 L 386.9375,916.5 L 388.90625,914.0625 L 389.90625,912.59375 L 389,910.6875 L 389.4375,910.40625 L 386.8125,910.15625 L 383.9375,907.3125 z"
       id="south-west"
       style="fill:#ffc8c8;stroke:#000000;stroke-width:0.5" />
    <path
       d="M 421.3125,620.0625 L 419.65625,621.4375 L 418.8125,623.65625 L 417.65625,624.15625 L 415.8125,623.75 L 415,625.5625 L 413.6875,626.1875 L 411.34375,626.34375 L 409.4375,624.3125 L 409.5625,627.6875 L 408.59375,627.34375 L 404.9375,632.15625 L 402.59375,634.90625 L 402.15625,634.5 L 400.3125,636 L 399.4375,636.1875 L 398,635.90625 L 395.9375,638.59375 L 393.59375,639.40625 L 393.5,641.90625 L 394.40625,643.15625 L 393.59375,643.9375 L 393.90625,644.9375 L 390,646.1875 L 390.15625,648.0625 L 387.0625,649.1875 L 384.40625,647.5 L 383.84375,650.4375 L 381.8125,648.5 L 380.09375,649.5 L 379.40625,648.6875 L 379.59375,646.84375 L 378.84375,646.90625 L 378.75,645.90625 L 377.8125,646.09375 L 377.09375,645 L 374.3125,646.15625 L 372.6875,645.09375 L 370.84375,646.3125 L 370.3125,647.84375 L 371.0625,649.3125 L 370.6875,652.75 L 368.9375,652.8125 L 365.90625,655.9375 L 363.3125,650.75 L 360.5,650.3125 L 360.25,649.65625 L 357.5,651.09375 L 355.4375,649.6875 L 354.5,647.75 L 354,648.8125 L 352.15625,649.34375 L 350.34375,652.09375 L 347.75,652.40625 L 346.4375,651.84375 L 345.5,653.15625 L 345.1875,655.8125 L 343.15625,655.90625 L 343.75,656.8125 L 342.59375,657.4375 L 344.25,658.75 L 341.84375,660.84375 L 342.65625,661.40625 L 341.5,663.9375 L 341.4375,665.25 L 341.5625,665.25 L 342.4375,665.34375 L 341.90625,666.5 L 344.6875,667.90625 L 346.8125,666.59375 L 346.65625,668.59375 L 347.59375,669.4375 L 348,668.9375 L 348.34375,669.5 L 348.75,669 L 349.4375,669.75 L 349.9375,669.40625 L 350.1875,670.09375 L 351.40625,669.6875 L 351.8125,670.75 L 351.0625,671.4375 L 353,672.34375 L 352.6875,673.1875 L 353.40625,673.5 L 354.25,673.25 L 354.8125,673.65625 L 355.0625,675.40625 L 353.90625,675.5 L 353.9375,674.25 L 352.40625,674.9375 L 351.0625,674.4375 L 350.9375,676.40625 L 349.3125,678.0625 L 349.34375,679.8125 L 349.84375,679.8125 L 349.40625,680.84375 L 348.9375,682.84375 L 346.8125,683.5 L 348.34375,684.65625 L 347.4375,684.84375 L 346.0625,686.9375 L 346.34375,688.0625 L 344.4375,689.5 L 342.9375,689.5 L 344.75,694.34375 L 343.0625,695.15625 L 343.40625,695.90625 L 346.5,695.15625 L 346.8125,694.65625 L 345.9375,694 L 346.40625,693.3125 L 348.1875,692.84375 L 349.8125,691.15625 L 351.25,690.75 L 352.59375,693.1875 L 352.0625,696.5625 L 350,696.40625 L 350.1875,698.84375 L 344.6875,699 L 340.0625,701.6875 L 338.90625,701.4375 L 336.5625,703.90625 L 336.3125,705.0625 L 337.3125,707.40625 L 340,708.6875 L 341.59375,711.09375 L 344.5625,712.3125 L 347.84375,715.5625 L 349.15625,716 L 353.59375,714.90625 L 354.9375,715.5 L 354.9375,715.5625 L 354.09375,717.65625 L 351.8125,718.5 L 350.9375,723.09375 L 355.15625,724.25 L 353.3125,725.3125 L 351.40625,724.75 L 349.34375,725.5625 L 348.5,726.25 L 348.75,727.59375 L 346.84375,727.8125 L 346.84375,730.3125 L 344.84375,731.40625 L 345.3125,733.5 L 343.40625,735.65625 L 344.9375,736.65625 L 345.9375,735.75 L 346.75,736.5625 L 345.3125,737.8125 L 342.4375,738.4375 L 342,739.5625 L 344.5,740.8125 L 344.4375,742.0625 L 343.25,742.25 L 343,744.9375 L 345.34375,748.0625 L 345.65625,749.1875 L 344.75,751.09375 L 346.8125,755.4375 L 349.5625,758.3125 L 350.6875,761.59375 L 352.84375,761.59375 L 353.15625,764.0625 L 354.4375,763.9375 L 359.5625,761 L 361.75,762.3125 L 360.5625,763.15625 L 361.9375,762.8125 L 362.3125,764.0625 L 363.34375,764.15625 L 364.65625,765.8125 L 366.84375,766.90625 L 366.15625,768.5 L 368.8125,771.6875 L 370.09375,770.40625 L 370.5,771.40625 L 371.65625,770.84375 L 371.90625,772.0625 L 373.75,771.84375 L 374.8125,772.90625 L 375.75,771.0625 L 376.5,771.5625 L 378.15625,769.65625 L 379.40625,770.40625 L 379.5625,769.0625 L 382.84375,769.1875 L 384.4375,766.5625 L 385.84375,767.0625 L 387.3125,765.75 L 389.09375,765.3125 L 388.5625,762.90625 L 387.34375,761.90625 L 387.40625,759.3125 L 385,758.3125 L 385.59375,757.90625 L 385.4375,756.0625 L 387.0625,754.59375 L 385.6875,752.84375 L 386.5625,751.5625 L 387.4375,751.4375 L 387.59375,752.4375 L 389.5,752.59375 L 389.34375,754.34375 L 390.9375,754.6875 L 391.90625,754.4375 L 392.25,752.75 L 395.15625,751.75 L 395.0625,752.59375 L 396.84375,753.4375 L 396.8125,756.6875 L 397.75,756.65625 L 398.5625,757.6875 L 400.5625,757.5 L 401.84375,757.75 L 403.9375,754.59375 L 406.34375,755.15625 L 406.65625,754.15625 L 407.75,754.5 L 406.15625,752 L 406.90625,751.65625 L 406.65625,749.5 L 407.3125,748.90625 L 407.9375,748.59375 L 409.8125,749.0625 L 411,749.9375 L 409.40625,751.09375 L 408.65625,753.40625 L 409.25,754.15625 L 411.3125,752.4375 L 413.09375,752.9375 L 414.75,752.5 L 415.5,753.6875 L 416.25,753.59375 L 419.90625,750.1875 L 422.09375,750 L 423.4375,750.84375 L 424.65625,749.25 L 428.15625,752.75 L 429.6875,753.34375 L 430.65625,750.6875 L 430,749.3125 L 428.0625,748.25 L 428.0625,747.15625 L 427.3125,746.4375 L 428.6875,746.1875 L 429.15625,745.40625 L 430.15625,746.15625 L 431,744.75 L 431.4375,745.5 L 433,742.5 L 434.4375,741.8125 L 435.65625,743.6875 L 436.4375,744.09375 L 437.09375,743.15625 L 436.9375,746.0625 L 438.15625,746.8125 L 438.90625,746.09375 L 438.6875,747.5625 L 439.8125,748.40625 L 439.4375,749.75 L 441.5,750.65625 L 444.15625,749.8125 L 444.5625,750.84375 L 441.09375,754.8125 L 441.34375,755.40625 L 445,758.90625 L 446.40625,757.25 L 445.8125,756.5625 L 447.15625,757 L 449.1875,756.09375 L 448.6875,754.9375 L 449.75,754.40625 L 450.6875,754.90625 L 451,754.34375 L 452.6875,747.5625 L 452.40625,746.15625 L 454,742.90625 L 456.0625,743.3125 L 455.59375,741.65625 L 457.5,741.0625 L 460.1875,743.65625 L 462.0625,742.84375 L 461.15625,741.09375 L 459.65625,740.9375 L 461.4375,739.0625 L 462.65625,739.15625 L 463.8125,735.5 L 464.9375,733.09375 L 467.09375,732.90625 L 468.90625,732.09375 L 468.4375,730.25 L 467.5,729.59375 L 466.84375,727.8125 L 468.0625,728.15625 L 468.84375,726.8125 L 470.3125,726.15625 L 471.40625,724.6875 L 470.90625,722.5 L 470.1875,722.09375 L 471.8125,719.40625 L 468.0625,718 L 468.25,717.34375 L 470.9375,715.59375 L 474.0625,714.84375 L 474.25,714.3125 L 472.1875,710.4375 L 469.8125,706.1875 L 469.5625,705.75 L 465.15625,699.9375 L 463.84375,699.15625 L 457.65625,695.5625 L 454.84375,693.65625 L 450.59375,691.65625 L 450.3125,690.3125 L 448.0625,688.84375 L 448.4375,686.84375 L 447.65625,686.1875 L 447.34375,684.59375 L 448.9375,683.84375 L 449.25,682.59375 L 448.5625,680.9375 L 446.09375,678.90625 L 446.25,678.15625 L 445.5625,677.5 L 445.15625,677.90625 L 443.0625,677.25 L 441.75,677.6875 L 441.59375,675.15625 L 438.25,674.1875 L 439.25,672.75 L 438.9375,671.8125 L 441,668.25 L 442.0625,668.84375 L 442.8125,668.0625 L 443.5625,668.8125 L 444.0625,668.25 L 444.59375,668.65625 L 444.40625,667.90625 L 446.0625,666.59375 L 445.84375,665.5625 L 444.65625,664.90625 L 446.25,663.15625 L 443.5625,660.65625 L 439.3125,659.59375 L 438.5,659.9375 L 438.40625,659.34375 L 437,660.09375 L 435.6875,659.15625 L 433.5625,657.5 L 432.84375,657.90625 L 431.9375,657.25 L 431.3125,657.84375 L 429.90625,657.15625 L 430.0625,656.09375 L 428.40625,653.5 L 428.4375,652.34375 L 430.0625,650.75 L 430.3125,647.25 L 434.5,644.8125 L 434.84375,641.40625 L 433.40625,639.90625 L 433,639.34375 L 433.59375,638.3125 L 432.9375,637.90625 L 432.40625,635.09375 L 433.09375,634.59375 L 433.0625,633.5625 L 430.5625,629.9375 L 430.90625,627.4375 L 427.09375,623.4375 L 425.15625,623.09375 L 421.65625,621.4375 L 421.3125,620.0625 z"
       id="west-midlands"
       style="fill:#ffc8c8;stroke:#000000;stroke-width:0.5" />
    <path
       d="M 375.65625,405.25 L 374.8125,406.9375 L 372.9375,407.59375 L 369.65625,410.34375 L 367.09375,410.6875 L 367,412.0625 L 366.09375,412.4375 L 365.40625,413.9375 L 363.25,415.4375 L 362.59375,417.1875 L 361.4375,417.15625 L 359.84375,418.15625 L 360.0625,419.25 L 358.65625,420.34375 L 352.84375,419.84375 L 352.6875,420.4375 L 354.40625,421.6875 L 352.84375,424.59375 L 353.1875,425.8125 L 352.34375,426.5625 L 352.34375,427.5 L 351,428.84375 L 349.3125,428.75 L 349.9375,429.3125 L 348.59375,429.90625 L 349.40625,430.5625 L 348.75,430.6875 L 349.0625,431.15625 L 347.59375,431.34375 L 347.8125,432.34375 L 348.59375,432.40625 L 347.6875,432.75 L 351.25,432.4375 L 348.40625,433.5 L 346.09375,432.9375 L 344.1875,430.9375 L 341.3125,430.5625 L 340.3125,431.5 L 337.90625,431.8125 L 336.09375,434.25 L 336.34375,435 L 338.5,436 L 339.8125,435.15625 L 340.09375,436.15625 L 339.1875,437.3125 L 337.65625,437.15625 L 338,439.0625 L 334.40625,436.6875 L 334.40625,436.65625 L 334.4375,436.25 L 332.65625,437.15625 L 330.65625,439.59375 L 328,446.90625 L 327.84375,451.8125 L 323.4375,456 L 323.25,456 L 322.59375,458.6875 L 319.1875,463.1875 L 318.65625,463.0625 L 319.4375,467.4375 L 318.9375,468.75 L 316.1875,476.90625 L 314.59375,477.65625 L 314.75,478.8125 L 315.6875,480.5625 L 317.40625,481.59375 L 322.5625,489 L 327.15625,497 L 327.9375,497.40625 L 327.90625,503.4375 L 334.3125,514 L 335.5,514.09375 L 336.3125,513.1875 L 338.4375,513.8125 L 339.40625,512.59375 L 338.65625,511.15625 L 339.84375,509.8125 L 339.5,509.3125 L 340.4375,507.75 L 340,507.4375 L 340.5625,507.3125 L 340.15625,506.40625 L 341.09375,506.75 L 342.09375,509.8125 L 342.6875,509.25 L 341.59375,511.0625 L 340.9375,514.5 L 340.40625,514.25 L 340.75,515.40625 L 338.1875,516.4375 L 338.65625,517.84375 L 339.4375,517.84375 L 339.0625,522.84375 L 340.40625,525 L 342.09375,523.4375 L 343.40625,525.75 L 343.09375,526.65625 L 343.5,526.15625 L 344.84375,527.8125 L 343.4375,525.90625 L 345.40625,524.25 L 347.90625,521.8125 L 349.65625,518.09375 L 350.75,517.25 L 350.75,515.25 L 351.0625,513.5625 L 352.65625,511.90625 L 352.25,513.4375 L 354.0625,515.65625 L 354.34375,515.3125 L 354.25,516.1875 L 355.15625,516.09375 L 354.5625,516.8125 L 354.90625,518.4375 L 354.65625,518.34375 L 354.65625,519.75 L 354.0625,519.65625 L 353.25,521.09375 L 354.65625,520.9375 L 356.65625,519.09375 L 358.1875,517.4375 L 359,518.5625 L 358.84375,516.8125 L 360.75,513.84375 L 364.84375,512.6875 L 363.40625,514.15625 L 363.84375,515.5625 L 363.0625,515.8125 L 363.4375,518.15625 L 365.15625,518.6875 L 366.09375,521.6875 L 367.1875,521.75 L 367.1875,520.8125 L 368,521 L 366.90625,523.34375 L 365.6875,524.25 L 365.5625,525.34375 L 366.15625,525.4375 L 364.34375,526.6875 L 362.34375,527 L 360.5,530.8125 L 359.34375,531.6875 L 360.65625,532.84375 L 361,536.09375 L 361.90625,535.6875 L 362.09375,536.25 L 362.4375,534.34375 L 363.40625,534.6875 L 363.90625,534.5625 L 365.4375,535.5625 L 363.6875,535.1875 L 362.1875,537.40625 L 362.65625,538.40625 L 364.3125,538.90625 L 363.5625,539.4375 L 363.3125,539 L 362.65625,539.90625 L 361.65625,539.6875 L 362.6875,540.4375 L 361.90625,540.90625 L 362.34375,541.59375 L 361.75,542.0625 L 361.9375,541.0625 L 361.15625,541 L 361.65625,541.5 L 360.4375,541.84375 L 359.40625,541 L 359.84375,540.40625 L 354.5625,542.5625 L 354.5,545 L 354.90625,544.6875 L 355.25,545.5 L 354.5625,545.34375 L 354.6875,546.1875 L 355.71875,548.0625 L 353.8125,545.8125 L 353.90625,542.90625 L 351.09375,543.65625 L 350.4375,554.75 L 350.34375,559.40625 L 350.84375,561.5 L 353,563.59375 L 355.65625,564.15625 L 357.9375,563.59375 L 357.15625,564.25 L 360.4375,564.3125 L 363.15625,563.8125 L 367.34375,562.3125 L 362.8125,564.25 L 359.5,565.0625 L 358.59375,565.15625 L 358.84375,565.6875 L 358,565.15625 L 357.34375,566.59375 L 358.1875,567.40625 L 356.90625,567.3125 L 357.40625,568 L 356.8125,568.15625 L 355.8125,568.6875 L 355.9375,568.0625 L 351.09375,574.75 L 348.1875,580.0625 L 347.40625,581.4375 L 346.90625,584.4375 L 348.6875,587.0625 L 349.5625,587 L 349.90625,586.25 L 349.40625,589.09375 L 351.1875,593.84375 L 353,596.40625 L 354.4375,602.09375 L 357.90625,604.90625 L 361.34375,607.90625 L 364.09375,608.75 L 364.75,608.25 L 364.34375,607.59375 L 367.4375,609.15625 L 367.9375,608.40625 L 367.90625,608.15625 L 369.15625,606.3125 L 368.84375,605.6875 L 370.8125,606.5625 L 371.1875,605.8125 L 373.5,605.0625 L 374.6875,605.59375 L 375.4375,604.4375 L 374.6875,605.9375 L 373.09375,605.59375 L 371.8125,606.84375 L 371.59375,606.90625 L 369.5625,607 L 368.90625,608.34375 L 369.5625,610.15625 L 367.09375,612.0625 L 364.4375,610.8125 L 363.3125,611 L 363.84375,611.84375 L 362.8125,612.34375 L 363.4375,612.65625 L 361.4375,612.6875 L 358.0625,610.6875 L 353.75,604.15625 L 352.65625,600.40625 L 350.9375,595.90625 L 343.84375,599.4375 L 340.40625,601.84375 L 341.25,604.3125 L 344.34375,607.75 L 344.6875,607.5 L 347.09375,610.90625 L 346.5,612.75 L 347.1875,613.15625 L 347.65625,612.6875 L 347.8125,613.6875 L 348.84375,614.15625 L 347.3125,613.84375 L 347.90625,614.59375 L 347.34375,615.34375 L 346.75,614.6875 L 347.1875,615.8125 L 351.5625,617.15625 L 356.5625,621.3125 L 358.25,623.75 L 358.34375,625.0625 L 356.8125,626.34375 L 353.65625,627.25 L 355.4375,629.84375 L 356.75,631.09375 L 359.40625,632.1875 L 360.90625,631.15625 L 360.4375,633 L 359.5,634.40625 L 361.1875,635.5625 L 360.8125,636.3125 L 362.09375,637.84375 L 361.40625,638.1875 L 362.25,638.5625 L 361.5,639.5 L 362.4375,640.40625 L 362.09375,641.9375 L 363.1875,642.5625 L 363.6875,644.8125 L 365.84375,645.65625 L 366.75,645 L 368.25,645.09375 L 368.6875,646.0625 L 370.84375,646.3125 L 372.6875,645.09375 L 374.34375,646.15625 L 377.09375,645 L 377.8125,646.09375 L 378.75,645.90625 L 378.84375,646.90625 L 379.59375,646.84375 L 379.40625,648.6875 L 380.09375,649.5 L 381.8125,648.5 L 383.84375,650.4375 L 384.40625,647.5 L 387.0625,649.1875 L 390.15625,648.0625 L 390,646.25 L 393.90625,644.9375 L 393.59375,643.9375 L 394.40625,643.15625 L 393.5,641.90625 L 393.59375,639.40625 L 395.9375,638.59375 L 398,635.90625 L 399.4375,636.1875 L 400.3125,636 L 402.15625,634.5 L 402.59375,634.90625 L 404.9375,632.15625 L 408.59375,627.34375 L 409.5625,627.65625 L 409.4375,624.3125 L 411.34375,626.34375 L 413.6875,626.1875 L 415,625.5625 L 415.8125,623.75 L 417.65625,624.15625 L 418.8125,623.65625 L 419.65625,621.4375 L 419.5,620.4375 L 420.5,619.5625 L 418.84375,618 L 418.1875,616.3125 L 418.75,609.9375 L 417.9375,608.4375 L 418.5625,607 L 418.25,605.25 L 417.0625,605.0625 L 416.84375,604.34375 L 416.65625,603.75 L 417.4375,603.8125 L 418.5625,602.5625 L 419.34375,599.40625 L 417.9375,599.34375 L 417.09375,597.8125 L 417.9375,596.6875 L 418.5625,597.15625 L 418.3125,596.5625 L 420.09375,594.1875 L 419.59375,592.3125 L 420.5,591.40625 L 420.6875,589.65625 L 421.1875,589.0625 L 422,589.6875 L 423.90625,589.0625 L 424.1875,588.6875 L 423.59375,587.84375 L 424.6875,585.9375 L 424.5,584.5 L 422.5625,583.40625 L 422.1875,582.1875 L 418.1875,577.40625 L 417.34375,577.5 L 417.09375,576.5625 L 416.84375,576 L 416.8125,576 L 416.90625,575.25 L 416.15625,574.75 L 416.40625,572.40625 L 415.3125,571.25 L 415.5,570.0625 L 413.5,570.65625 L 412.8125,571.5625 L 411.15625,571.40625 L 410.15625,569.84375 L 409.59375,570.6875 L 409.1875,570.25 L 409.40625,569.09375 L 408.3125,568.34375 L 407.59375,565.75 L 409.40625,564.34375 L 410.4375,562.3125 L 410,559.5 L 410.75,558.65625 L 410.5,557.4375 L 411.5625,556.6875 L 414.84375,554.5625 L 415.8125,554.09375 L 415.84375,551.84375 L 413.59375,549.6875 L 413,549.90625 L 413.5,548.84375 L 412.1875,547.40625 L 410.8125,543.84375 L 408.3125,543.40625 L 407.75,542.3125 L 407.0625,542.5625 L 407.25,541.34375 L 406.9375,540.6875 L 406.1875,538.8125 L 404.3125,539.6875 L 403.90625,538.59375 L 404.59375,537.84375 L 404,537.5 L 399.84375,538.25 L 398.25,536.09375 L 396.9375,536.59375 L 396.15625,536 L 396.15625,534.25 L 396.9375,534.40625 L 396.6875,533.5625 L 395.84375,533.34375 L 395.5625,531 L 394.75,530.0625 L 391.4375,531.25 L 389.3125,530.9375 L 388.59375,530.34375 L 389,528.6875 L 389,527.15625 L 386.09375,524.9375 L 385.15625,525 L 385.15625,524.1875 L 382.5625,521.4375 L 382.84375,518.59375 L 384.5625,518.09375 L 389.3125,510.59375 L 390.9375,511 L 392.9375,510.75 L 393.40625,509.25 L 394.9375,509.15625 L 395,508.25 L 395.65625,508.09375 L 397.1875,509.4375 L 397.9375,509.0625 L 398.40625,507.3125 L 398.65625,505.90625 L 398,504.84375 L 398.5625,504.0625 L 398.1875,501.40625 L 399.0625,500 L 395.15625,496.4375 L 396.8125,496.09375 L 398.59375,494.3125 L 399.84375,494.25 L 400.1875,492.6875 L 399.34375,492 L 399.1875,489.5625 L 400.15625,487.40625 L 401.5625,487.25 L 401.75,486.5625 L 402.9375,486.0625 L 406.75,486.34375 L 407.5625,485 L 408.34375,485.5625 L 408.6875,483.84375 L 407.84375,477.25 L 406.25,477.1875 L 405.5,475.15625 L 399.5,470.25 L 398.1875,466.34375 L 400.5625,464.3125 L 400.25,462.84375 L 398.09375,462.09375 L 396.5625,460.4375 L 396.3125,459.15625 L 398.1875,456 L 397.8125,455.40625 L 398.4375,451.90625 L 399.34375,450.84375 L 399.09375,448.9375 L 398.40625,448.5 L 398.15625,447.34375 L 396.8125,447.1875 L 394.25,444.4375 L 392.84375,441.75 L 392.15625,443.25 L 389.75,444.15625 L 387.5625,446.75 L 385.09375,447.15625 L 383,445.3125 L 382.0625,442.84375 L 382.65625,442 L 380.65625,438.65625 L 382.5,437.3125 L 383.15625,434.8125 L 384.5,433.75 L 383.09375,432.4375 L 383.0625,430.5625 L 381.34375,429.9375 L 381,429.09375 L 382.8125,427.34375 L 382.84375,424.1875 L 385.75,422.40625 L 388.5,421.65625 L 387.1875,419.1875 L 387.9375,418.5625 L 387.40625,417.8125 L 388.3125,416.9375 L 387.3125,416.09375 L 385.4375,416.9375 L 383.90625,417.15625 L 383.1875,415.4375 L 382.40625,415.5625 L 381.59375,414.5 L 381.3125,412.34375 L 378.3125,411.59375 L 376.40625,408.9375 L 376.0625,407.6875 L 376.59375,406.6875 L 375.65625,405.25 z M 338.4375,518.1875 L 336.90625,519.1875 L 337.34375,523 L 340.9375,529.59375 L 343.34375,529.6875 L 343.40625,528.8125 L 343.3125,529.3125 L 343,528.8125 L 341.3125,529.15625 L 341,527.6875 L 340.15625,527.4375 L 340.34375,526 L 338.5625,524.15625 L 338.5,521 L 337.59375,519 L 338.4375,518.1875 z M 345.34375,608.9375 L 346.1875,611.75 L 347.0625,610.9375 L 345.34375,608.9375 z"
       id="north-west"
       style="fill:#ffc8c8;stroke:#000000;stroke-width:0.5" />
    <path
       d="M 416.6875,337.4375 L 413.5,339.40625 L 413.5,342.75 L 412.15625,343 L 411.40625,345.40625 L 409.75,345.4375 L 409.4375,347.15625 L 407.9375,347.5 L 408.4375,348.9375 L 405.3125,352.1875 L 405.3125,353.5 L 403.4375,354.8125 L 404.3125,356 L 400,355.34375 L 398.6875,355.8125 L 398,357 L 398.75,357.65625 L 399.6875,357.34375 L 399.25,358.25 L 400.90625,360.09375 L 400.90625,362.65625 L 403.90625,365.34375 L 404.90625,368.9375 L 404.59375,370.40625 L 406.1875,372.59375 L 406.3125,374.15625 L 409.15625,374.84375 L 407,375.6875 L 406.6875,377.5 L 404.40625,379.3125 L 402.59375,378.8125 L 399.3125,381.59375 L 398.09375,381.3125 L 397.34375,382.4375 L 398.25,384.40625 L 397.25,385.3125 L 397.8125,385.9375 L 395.1875,387.90625 L 393.90625,388 L 392.9375,386.8125 L 391.09375,386.8125 L 388.34375,387.5625 L 386.34375,390.6875 L 383.9375,391.25 L 383.0625,393.5625 L 380.8125,395 L 379.65625,397.3125 L 378.40625,397.5625 L 380.59375,398.9375 L 379.4375,399.1875 L 379.34375,401.5 L 377.09375,401.6875 L 376.0625,403.8125 L 375.65625,405.3125 L 376.59375,406.6875 L 376.0625,407.6875 L 376.40625,408.9375 L 378.25,411.65625 L 381.25,412.34375 L 381.59375,414.5 L 382.40625,415.5625 L 383.15625,415.5 L 383.84375,417.15625 L 385.40625,417 L 387.3125,416.09375 L 388.3125,416.9375 L 387.34375,417.8125 L 387.90625,418.59375 L 387.15625,419.1875 L 388.4375,421.65625 L 385.6875,422.4375 L 382.8125,424.1875 L 382.75,427.34375 L 381,429.15625 L 381.34375,430 L 383.0625,430.5625 L 383.0625,432.5 L 384.4375,433.75 L 383.15625,434.84375 L 382.5,437.3125 L 380.65625,438.6875 L 382.65625,442 L 382.0625,442.84375 L 382.9375,445.3125 L 385.09375,447.15625 L 387.5,446.8125 L 389.75,444.1875 L 392.15625,443.25 L 392.84375,441.8125 L 394.1875,444.4375 L 396.8125,447.1875 L 398.09375,447.40625 L 398.40625,448.5 L 399.09375,448.9375 L 399.3125,450.90625 L 398.40625,451.90625 L 397.75,455.40625 L 398.1875,456 L 396.25,459.15625 L 396.5,460.4375 L 398.0625,462.09375 L 400.25,462.84375 L 400.5625,464.34375 L 398.1875,466.40625 L 399.4375,470.25 L 405.5,475.15625 L 406.25,477.25 L 407.84375,477.25 L 408.65625,483.90625 L 408.3125,485.5625 L 411.3125,484.9375 L 416.0625,482.59375 L 415.9375,483.5625 L 419,484.4375 L 420.6875,486.15625 L 422.4375,485.90625 L 427.75,482.8125 L 427.84375,480.4375 L 429,479.90625 L 432,482.5 L 433.0625,480.0625 L 432.8125,477.3125 L 435.75,477.75 L 436.5,476.15625 L 438.0625,476.84375 L 438.9375,477.15625 L 440.5625,477 L 440.75,478.09375 L 442.09375,478 L 442.15625,479.1875 L 443.5,478.5625 L 444.1875,478.90625 L 444.09375,479.59375 L 445.4375,479.34375 L 445.40625,480 L 444.75,480.3125 L 445.59375,480.1875 L 445.34375,481.0625 L 447.09375,482.40625 L 447.75,483.90625 L 449.34375,483.90625 L 448.6875,483.40625 L 448.9375,482.34375 L 449.75,482.5 L 449.90625,483.4375 L 451.15625,482.1875 L 450.6875,483.34375 L 452.1875,483.5625 L 452.6875,485 L 452.40625,485.1875 L 452.4375,485.5625 L 453.1875,486.0625 L 453.0625,484.8125 L 453.59375,484.40625 L 453,483.34375 L 453.3125,481.5 L 452.25,480.59375 L 453.3125,480.3125 L 454.6875,481.65625 L 455.3125,482.34375 L 455,482.9375 L 456.25,483.15625 L 456.5625,481.40625 L 457.34375,482.25 L 458.1875,481.3125 L 458.90625,482.15625 L 458.75,483.6875 L 459.3125,484.34375 L 460.5,483.65625 L 460.59375,484.5625 L 462.5625,483.09375 L 463.34375,483.25 L 464.5625,481.65625 L 466.09375,481.9375 L 466.09375,480.4375 L 467,480.40625 L 467.5,479.4375 L 467.75,479.25 L 473.09375,480.34375 L 474.90625,480.65625 L 476.40625,479.6875 L 480.09375,481.0625 L 480.90625,480.15625 L 482.1875,480.0625 L 484.5,480.65625 L 485.5,481.65625 L 489.1875,480.59375 L 492.40625,481.34375 L 491.75,479.9375 L 492,476.9375 L 493.34375,474.90625 L 495.0625,474.59375 L 495.8125,473.5 L 494.5,473.8125 L 491.65625,472.40625 L 488.9375,472.4375 L 487,470.84375 L 484.84375,471.0625 L 483.3125,470.59375 L 482.15625,470.15625 L 478.84375,467.65625 L 474.6875,466.40625 L 473.5625,465.25 L 473.65625,466.3125 L 472.4375,466.5625 L 472.8125,468 L 472.09375,469.09375 L 469.8125,471.59375 L 472.09375,468.4375 L 471.9375,467.09375 L 471.25,467.25 L 469.5,467.09375 L 470.25,466 L 471.8125,466.0625 L 471.25,465.9375 L 471.5,464.6875 L 472.1875,464.3125 L 470.5,463 L 469.5625,460.8125 L 470.25,459.34375 L 469.6875,458.8125 L 471.15625,459.5625 L 470.90625,458.75 L 466.8125,456.25 L 463,451.09375 L 461.65625,443.6875 L 459.9375,441.1875 L 459.4375,439.34375 L 459.0625,437.09375 L 459.65625,436.3125 L 459.75,436.25 L 459.5625,434.8125 L 458.4375,435.59375 L 458.90625,434.40625 L 459.59375,434.5625 L 458.6875,434.0625 L 458.84375,432.09375 L 458.09375,432.90625 L 456.34375,432.75 L 458.09375,432.84375 L 459.5,430.59375 L 459,429.09375 L 457.75,428.15625 L 455.75,425.9375 L 456.4375,424.75 L 455.34375,425.65625 L 455,425.09375 L 453.4375,427.75 L 453.40625,427.75 L 448.3125,427.8125 L 450.15625,427.3125 L 453.1875,427.15625 L 453.75,425.5625 L 454.65625,424.5625 L 456.34375,424.40625 L 454.59375,422.65625 L 452.5625,417.90625 L 451.9375,416.6875 L 450.3125,414.1875 L 450.59375,413 L 448.75,410.34375 L 451,413.3125 L 448.4375,408.5625 L 447.59375,408.40625 L 448.5625,408.25 L 449.1875,406.1875 L 450.15625,405.75 L 448.9375,403.40625 L 448.4375,401.1875 L 446.75,399.25 L 445.4375,395.9375 L 446.90625,390.90625 L 445.75,389.5 L 443.5625,388.4375 L 445.5625,388.90625 L 444.4375,388.3125 L 443.1875,384.09375 L 442.8125,384.5625 L 442.25,383.5 L 442.5,383 L 443.09375,383.90625 L 444.90625,381.59375 L 445.1875,378.9375 L 444.09375,377.9375 L 444.1875,372.25 L 442.75,371.59375 L 442.9375,369.0625 L 441.25,366.9375 L 441.59375,365.90625 L 442.4375,365.6875 L 440.75,363.3125 L 441.15625,362.84375 L 435.9375,358.65625 L 434.75,358.5 L 433,360.15625 L 432.0625,358.75 L 433.34375,357.75 L 432.15625,355.6875 L 430.34375,356.84375 L 428.65625,355.84375 L 426.84375,353.3125 L 426.65625,351.5 L 425.84375,351.34375 L 425.9375,350.1875 L 421.25,345.9375 L 419.25,342.90625 L 419.8125,342.5 L 416.6875,337.4375 z M 432.34375,351.09375 L 427.75,351.15625 L 428.5625,351.90625 L 430.1875,351.5 L 431,353.0625 L 432.5,353.09375 L 432.34375,351.09375 z M 399.4375,456.0625 L 398.5,456.4375 L 398.5,456.40625 L 399.4375,456.0625 z"
       id="north-east"
       style="fill:#ffc8c8;stroke:#000000;stroke-width:0.5" />
    <path
       d="M 495.8125,473.5 L 495.09375,474.59375 L 493.40625,474.90625 L 492.0625,476.9375 L 491.8125,479.90625 L 492.40625,481.34375 L 489.1875,480.59375 L 485.5,481.65625 L 484.5625,480.65625 L 482.25,480.0625 L 480.9375,480.15625 L 480.15625,481.0625 L 476.4375,479.6875 L 474.9375,480.65625 L 473.15625,480.34375 L 467.8125,479.25 L 467.5,479.40625 L 467.0625,480.34375 L 466.15625,480.4375 L 466.09375,481.9375 L 464.59375,481.59375 L 463.40625,483.25 L 462.5625,483.09375 L 460.65625,484.5625 L 460.5625,483.65625 L 459.3125,484.34375 L 458.8125,483.65625 L 458.90625,482.15625 L 458.25,481.3125 L 457.34375,482.1875 L 456.59375,481.34375 L 456.3125,483.15625 L 455,482.90625 L 455.34375,482.34375 L 454.6875,481.65625 L 453.34375,480.3125 L 452.3125,480.59375 L 453.3125,481.5 L 453.0625,483.3125 L 453.65625,484.40625 L 453.0625,484.8125 L 453.1875,486 L 452.5,485.5625 L 452.40625,485.1875 L 452.75,484.9375 L 452.25,483.5625 L 450.75,483.34375 L 451.15625,482.1875 L 449.9375,483.4375 L 449.75,482.5 L 449,482.34375 L 448.75,483.34375 L 449.40625,483.90625 L 447.75,483.84375 L 447.15625,482.34375 L 445.40625,481.0625 L 445.59375,480.15625 L 444.8125,480.25 L 445.4375,480 L 445.5,479.34375 L 444.09375,479.59375 L 444.25,478.90625 L 443.5,478.5625 L 442.15625,479.1875 L 442.15625,478 L 440.8125,478.0625 L 440.59375,477 L 439,477.09375 L 438.09375,476.84375 L 436.5,476.15625 L 435.8125,477.75 L 432.84375,477.3125 L 433.09375,480.0625 L 432,482.5 L 429.0625,479.90625 L 427.90625,480.40625 L 427.8125,482.8125 L 422.5,485.90625 L 420.75,486.09375 L 419.0625,484.4375 L 416,483.5 L 416.09375,482.59375 L 411.3125,484.9375 L 408.34375,485.5625 L 407.5625,485 L 406.75,486.40625 L 402.9375,486.0625 L 401.75,486.5625 L 401.5625,487.25 L 400.15625,487.40625 L 399.1875,489.5625 L 399.34375,492 L 400.1875,492.6875 L 399.84375,494.25 L 398.59375,494.3125 L 396.84375,496.09375 L 395.15625,496.4375 L 399.0625,500 L 398.1875,501.40625 L 398.5625,504.0625 L 398,504.84375 L 398.65625,505.90625 L 398.40625,507.3125 L 398,509.0625 L 397.1875,509.4375 L 395.65625,508.09375 L 395,508.3125 L 394.9375,509.15625 L 393.40625,509.25 L 392.9375,510.75 L 390.9375,511.0625 L 389.3125,510.59375 L 384.5625,518.09375 L 382.84375,518.59375 L 382.5625,521.4375 L 385.15625,524.1875 L 385.15625,525 L 386.09375,524.9375 L 389,527.15625 L 389,528.6875 L 388.59375,530.34375 L 389.3125,530.9375 L 391.4375,531.25 L 394.75,530.0625 L 395.5625,531 L 395.84375,533.34375 L 396.6875,533.5625 L 396.9375,534.40625 L 396.15625,534.3125 L 396.15625,536 L 396.9375,536.59375 L 398.3125,536.09375 L 399.84375,538.25 L 404,537.5 L 404.59375,537.84375 L 403.90625,538.59375 L 404.3125,539.6875 L 406.1875,538.8125 L 406.9375,540.6875 L 407.25,541.34375 L 407.0625,542.5625 L 407.75,542.3125 L 408.3125,543.40625 L 410.8125,543.84375 L 412.1875,547.40625 L 413.5,548.84375 L 413,549.90625 L 413.59375,549.6875 L 415.84375,551.84375 L 415.8125,554.09375 L 414.84375,554.5625 L 411.5625,556.6875 L 410.5,557.4375 L 410.75,558.65625 L 410,559.5 L 410.4375,562.3125 L 409.40625,564.34375 L 407.59375,565.75 L 408.3125,568.34375 L 409.40625,569.15625 L 409.1875,570.25 L 409.59375,570.6875 L 410.15625,569.84375 L 411.15625,571.40625 L 412.8125,571.5625 L 413.5,570.65625 L 415.5,570.0625 L 415.3125,571.25 L 416.40625,572.40625 L 416.15625,574.75 L 416.90625,575.25 L 416.8125,576 L 417.09375,576.59375 L 417.34375,577.5 L 418.1875,577.40625 L 422.1875,582.1875 L 422.5625,583.40625 L 424.5,584.5 L 424.6875,585.9375 L 425.75,586.4375 L 427.0625,585.6875 L 429.15625,587.9375 L 430.40625,587.84375 L 430.59375,588.65625 L 431.8125,588.90625 L 431.1875,589.4375 L 432.09375,589.8125 L 431.8125,592.1875 L 433.9375,594 L 435.4375,594.25 L 435.40625,598.1875 L 436.4375,599.3125 L 438.09375,599.40625 L 438.09375,600.5 L 441.40625,601.8125 L 440.8125,604.65625 L 445.59375,606.90625 L 444.1875,607.1875 L 442.84375,609.6875 L 443.1875,610.15625 L 444.4375,609.5 L 444.90625,609.9375 L 445.09375,610.6875 L 446,609.59375 L 446.3125,610.65625 L 447.5625,610.1875 L 447.5625,611.1875 L 449.15625,611.40625 L 451.4375,610 L 452.75,609.84375 L 453.65625,610 L 454.5,609.5 L 454.1875,608.5625 L 455.34375,607.8125 L 456.75,608.09375 L 457.34375,607.25 L 458.9375,608.0625 L 458.8125,609.84375 L 460.5625,610.1875 L 460.9375,609.6875 L 462.1875,610.09375 L 463.0625,608.65625 L 463.25,609 L 463.84375,608.0625 L 464.6875,608.1875 L 464.6875,608.25 L 465.40625,608.90625 L 464.9375,610.15625 L 465.84375,610.75 L 468.40625,611.5625 L 469.1875,610.8125 L 471,611.25 L 471.25,610.4375 L 475.1875,607.15625 L 475.0625,606.59375 L 474,606.75 L 473.65625,605.34375 L 475.1875,605.5625 L 474.65625,604.09375 L 475.65625,603.40625 L 475.40625,601.84375 L 476.59375,601.0625 L 476.59375,599.90625 L 477.09375,600.0625 L 478.4375,597.90625 L 482.09375,597.25 L 482.15625,597.90625 L 483.1875,597.75 L 484.40625,596.59375 L 485,592.8125 L 487.09375,591.34375 L 488.1875,589.34375 L 490.5625,592.3125 L 489.3125,593.40625 L 489.5625,593.9375 L 492.3125,593.8125 L 492.40625,593.25 L 497.34375,594.4375 L 498.1875,593.34375 L 498.15625,592.0625 L 499,591.6875 L 499.1875,589.59375 L 500.25,589.40625 L 501,587.25 L 508.4375,587.90625 L 507.90625,590.90625 L 508.25,593.84375 L 512.40625,593.8125 L 518.5,591.84375 L 517.5625,591.25 L 517.84375,589.5 L 517.34375,588.59375 L 522.75,587.0625 L 522.5,585.4375 L 521.59375,585.25 L 521,583.9375 L 516.4375,585.0625 L 517.09375,584.09375 L 518.65625,583.6875 L 518.65625,583 L 519.6875,582.6875 L 521.0625,580.84375 L 521.6875,582.0625 L 526.3125,582.40625 L 527.15625,582.4375 L 529.34375,578.40625 L 528.8125,576.34375 L 529.84375,576.4375 L 532.75,578.5 L 532.59375,579.5 L 533.65625,579.3125 L 534.5,581.25 L 536.25,580.84375 L 536.8125,581.6875 L 534.75,585.15625 L 535.40625,585.1875 L 535.84375,587.40625 L 535.5,590.1875 L 536.9375,590.34375 L 537.4375,592.0625 L 539.25,592.34375 L 539.59375,594.40625 L 540.8125,595.5625 L 541.5625,595.8125 L 544,593.8125 L 542.25,591.8125 L 543.40625,590.90625 L 543,590 L 544.3125,589.59375 L 544.90625,586.40625 L 546.09375,586.1875 L 546.5625,586.9375 L 549.75,586 L 550.25,585.5 L 548.9375,583.6875 L 545.59375,580.0625 L 545,579.4375 L 544.25,579.3125 L 543.8125,580.0625 L 542.90625,579.65625 L 541.65625,578.6875 L 535.5,573.5625 L 529.4375,565.40625 L 523.4375,566.84375 L 523.0625,567.4375 L 518.0625,567.40625 L 516.90625,568.34375 L 515.59375,569.5 L 514.59375,569.8125 L 510.5625,568.09375 L 508.84375,565.8125 L 503.59375,568 L 504.1875,570.5625 L 503.3125,569.1875 L 503.25,567.75 L 501.5,567.09375 L 503.5,567 L 504.9375,565.09375 L 508,564.25 L 507.59375,563.6875 L 510.6875,564.4375 L 512.65625,566.3125 L 517.84375,565.34375 L 518.5,565.34375 L 519.5,565.65625 L 526.90625,562.84375 L 529.84375,562.3125 L 532.4375,562.40625 L 532.75,560.84375 L 532.65625,563.5 L 533.15625,563.9375 L 533.8125,565.9375 L 541.40625,573.3125 L 545.3125,574.3125 L 550.9375,571.9375 L 554.0625,572.8125 L 556.90625,574.59375 L 558.1875,576.25 L 558.25,576.90625 L 558.34375,576.3125 L 558.09375,574.5625 L 556.09375,570.0625 L 537.9375,544.59375 L 535.59375,538.34375 L 533.9375,533.15625 L 533.8125,527.75 L 534.65625,525.5 L 535.4375,525.3125 L 536.5625,523.1875 L 540.59375,522.4375 L 542.40625,521.09375 L 541.25,519.8125 L 534.15625,516.90625 L 533.5625,516.8125 L 530.25,514.90625 L 528.75,511.9375 L 529.25,510.40625 L 530.40625,510.5 L 527.5625,509.34375 L 523.1875,507 L 523.4375,506.5 L 521.4375,504.34375 L 522.15625,502.8125 L 520.6875,502.1875 L 520,498.09375 L 518.9375,497.1875 L 516.84375,491.84375 L 515.09375,489.90625 L 513.0625,489 L 512.34375,487.15625 L 513.0625,485.59375 L 508.6875,481.09375 L 507.15625,480.59375 L 503.4375,479.9375 L 502.6875,477.90625 L 500.5,476.3125 L 498.65625,477 L 496.6875,473.84375 L 495.8125,473.5 z M 450.59375,608.9375 L 451.09375,609.65625 L 451.0625,609.65625 L 450.59375,608.9375 z"
       id="yorkshire-and-humber"
       style="fill:#ffc8c8;stroke:#000000;stroke-width:0.5" />
    <path
       d="M 528.8125,576.34375 L 529.34375,578.40625 L 527.15625,582.4375 L 526.3125,582.40625 L 521.6875,582.0625 L 521.0625,580.84375 L 519.6875,582.6875 L 518.65625,583 L 518.65625,583.6875 L 517.09375,584.09375 L 516.4375,585 L 521,583.9375 L 521.59375,585.25 L 522.5,585.4375 L 522.75,587.0625 L 517.34375,588.5625 L 517.84375,589.5 L 517.5,591.25 L 518.5,591.8125 L 512.40625,593.8125 L 508.25,593.84375 L 507.90625,590.90625 L 508.4375,587.84375 L 501,587.25 L 500.25,589.34375 L 499.1875,589.5625 L 499,591.65625 L 498.15625,592.0625 L 498.1875,593.34375 L 497.34375,594.40625 L 497.34375,594.4375 L 492.40625,593.25 L 492.3125,593.75 L 489.5625,593.9375 L 489.25,593.40625 L 490.5625,592.3125 L 488.1875,589.34375 L 487.09375,591.34375 L 484.9375,592.8125 L 484.40625,596.59375 L 483.1875,597.75 L 482.15625,597.90625 L 482.09375,597.25 L 478.4375,597.90625 L 477.09375,600.0625 L 476.59375,599.90625 L 476.59375,601.0625 L 475.40625,601.84375 L 475.65625,603.40625 L 474.65625,604.09375 L 475.1875,605.5625 L 473.65625,605.34375 L 474,606.75 L 475.0625,606.59375 L 475.1875,607.15625 L 471.25,610.4375 L 471,611.25 L 469.1875,610.8125 L 468.40625,611.59375 L 465.84375,610.75 L 464.9375,610.15625 L 465.40625,608.90625 L 464.6875,608.25 L 463.84375,608.0625 L 463.25,609 L 463.0625,608.65625 L 462.1875,610.0625 L 460.9375,609.6875 L 460.5625,610.1875 L 458.8125,609.8125 L 458.9375,608.0625 L 457.34375,607.25 L 456.75,608.09375 L 455.34375,607.8125 L 454.1875,608.5625 L 454.5,609.5 L 453.65625,610 L 452.75,609.84375 L 451.4375,610 L 449.15625,611.40625 L 447.5625,611.1875 L 447.5625,610.1875 L 446.3125,610.65625 L 446,609.5625 L 445.09375,610.6875 L 444.90625,609.9375 L 444.4375,609.5 L 443.1875,610.1875 L 442.84375,609.6875 L 444.1875,607.1875 L 445.59375,606.90625 L 440.8125,604.65625 L 441.40625,601.8125 L 438.09375,600.5 L 438.09375,599.40625 L 436.4375,599.3125 L 435.40625,598.1875 L 435.4375,594.25 L 433.9375,594 L 431.8125,592.1875 L 432.09375,589.8125 L 431.1875,589.4375 L 431.8125,588.90625 L 430.59375,588.65625 L 430.40625,587.84375 L 429.15625,587.9375 L 427.0625,585.6875 L 425.75,586.4375 L 424.6875,585.9375 L 423.59375,587.84375 L 424.1875,588.6875 L 423.90625,589.0625 L 422,589.6875 L 421.1875,589.09375 L 420.6875,589.65625 L 420.5,591.40625 L 419.59375,592.3125 L 420.09375,594.1875 L 418.3125,596.5625 L 418.5625,597.15625 L 417.9375,596.6875 L 417.09375,597.84375 L 417.9375,599.34375 L 419.34375,599.40625 L 418.5625,602.59375 L 417.4375,603.8125 L 416.59375,603.75 L 416.84375,604.34375 L 417.0625,605.0625 L 418.25,605.25 L 418.5625,607 L 417.9375,608.4375 L 418.75,609.9375 L 418.1875,616.3125 L 418.84375,618 L 420.5,619.5625 L 419.4375,620.4375 L 419.65625,621.4375 L 421.3125,620.09375 L 421.65625,621.4375 L 425.15625,623.09375 L 427.09375,623.4375 L 430.90625,627.4375 L 430.5625,629.9375 L 433.0625,633.5625 L 433.09375,634.59375 L 432.40625,635.09375 L 432.9375,637.90625 L 433.59375,638.3125 L 433,639.34375 L 433.40625,639.90625 L 434.84375,641.40625 L 434.5,644.8125 L 430.3125,647.25 L 430.0625,650.75 L 428.4375,652.34375 L 428.40625,653.5 L 430.0625,656.09375 L 429.90625,657.15625 L 431.3125,657.84375 L 431.9375,657.25 L 432.84375,657.90625 L 433.5625,657.5 L 435.6875,659.15625 L 437,660.09375 L 438.40625,659.34375 L 438.5,659.9375 L 439.3125,659.59375 L 443.5625,660.65625 L 446.3125,663.15625 L 444.65625,664.90625 L 445.84375,665.5625 L 446.0625,666.59375 L 444.40625,667.90625 L 444.59375,668.65625 L 444.0625,668.25 L 443.5625,668.8125 L 442.8125,668.0625 L 442.0625,668.84375 L 441,668.25 L 438.9375,671.8125 L 439.25,672.75 L 438.25,674.1875 L 441.59375,675.15625 L 441.75,677.6875 L 443.0625,677.25 L 445.15625,677.90625 L 445.5625,677.5 L 446.25,678.15625 L 446.09375,678.90625 L 448.5625,680.9375 L 449.25,682.5625 L 448.9375,683.8125 L 447.34375,684.59375 L 447.65625,686.1875 L 448.4375,686.84375 L 448.0625,688.84375 L 450.3125,690.3125 L 450.59375,691.65625 L 454.84375,693.65625 L 457.65625,695.5625 L 463.84375,699.15625 L 465.15625,699.9375 L 469.5625,705.75 L 469.8125,706.1875 L 472.1875,710.4375 L 474.25,714.3125 L 474.0625,714.84375 L 470.9375,715.65625 L 468.1875,717.34375 L 468,718 L 471.8125,719.40625 L 470.1875,722.09375 L 470.84375,722.5 L 471.40625,724.6875 L 470.3125,726.15625 L 468.84375,726.8125 L 468,728.15625 L 466.84375,727.8125 L 467.4375,729.59375 L 468.4375,730.25 L 468.84375,732.09375 L 467.09375,732.90625 L 464.9375,733.09375 L 463.8125,735.5625 L 469.4375,743.25 L 467.8125,743.1875 L 464.5625,744.40625 L 464.75,745.15625 L 466.15625,745.34375 L 465.09375,748.3125 L 467.5,752.3125 L 466.8125,755 L 467.25,756.15625 L 470,755.34375 L 473.0625,756.3125 L 474.4375,755.75 L 475.25,754.5 L 477.25,754.0625 L 478.5,751.9375 L 477.0625,751.34375 L 478,748.84375 L 482,746.84375 L 484.40625,746.65625 L 483.34375,745.59375 L 488.34375,745.90625 L 489.40625,744.6875 L 490.1875,745.3125 L 490.9375,748.84375 L 492.4375,751.15625 L 493.65625,750.09375 L 494.3125,750.40625 L 494.90625,749.15625 L 496.15625,747.9375 L 495.4375,746.84375 L 497,746.5 L 497.5625,745.59375 L 496.4375,743.5 L 494.90625,742.59375 L 494.75,741.3125 L 493.6875,741.0625 L 494.09375,739.75 L 494.15625,739.75 L 497.65625,739 L 497.40625,737.8125 L 498.59375,737.90625 L 499,736.3125 L 500.0625,736.90625 L 500.59375,735.3125 L 501.8125,734.6875 L 502.0625,735.5625 L 502.84375,735.15625 L 505.8125,732.40625 L 508.3125,732 L 510.3125,728.40625 L 509.09375,723.9375 L 512,722.75 L 513.59375,723.34375 L 515.0625,725.4375 L 516.75,725 L 517.3125,723.5625 L 516.5625,721.4375 L 518.34375,718.6875 L 517.9375,718.40625 L 521.59375,717.75 L 521.5,716 L 520.34375,715.8125 L 520.75,714.90625 L 519.3125,713.6875 L 519.9375,712.1875 L 519.4375,711.59375 L 523.1875,710.75 L 524.75,708.8125 L 524.65625,707.9375 L 525.0625,707.84375 L 528.25,705.5 L 527.59375,705.09375 L 528.75,702.5625 L 529.5625,701.8125 L 528.3125,699.34375 L 528.59375,697.5 L 524.5625,695.40625 L 525.40625,694.0625 L 525.3125,693.0625 L 524.09375,691.84375 L 524.90625,691.3125 L 524.34375,689.6875 L 523.6875,689.3125 L 520.15625,690.34375 L 518.84375,688.9375 L 520.5625,685.5 L 520.34375,684.40625 L 518.90625,683.09375 L 518.90625,683.09375 L 520.15625,682.15625 L 521.65625,682.0625 L 521.6875,681.5 L 524.84375,682.09375 L 528.5,680.5 L 529.4375,679.0625 L 532.5,679.5 L 534.5,681.5 L 538.0625,679.59375 L 538.9375,681.3125 L 539.8125,680.40625 L 542.40625,681.3125 L 544.90625,679 L 545.90625,679.5625 L 547.4375,678.59375 L 549.59375,679.59375 L 549.65625,680 L 553.15625,679.5625 L 554.9375,677.65625 L 554.5,674.09375 L 555.75,672.6875 L 557.4375,673 L 560.3125,671.1875 L 562.8125,671.0625 L 563.90625,671.5625 L 569.4375,667.25 L 567.59375,666.0625 L 568.90625,663.1875 L 565.5625,662.5625 L 565,666.15625 L 565.40625,661.4375 L 562.65625,656.4375 L 560.9375,655.5625 L 559.1875,654.8125 L 557.09375,654.8125 L 554.84375,653.65625 L 553.5625,654.0625 L 553.84375,653.25 L 552.8125,653.9375 L 554,652.09375 L 553.40625,651.15625 L 554.40625,651.75 L 556.09375,650.25 L 553.6875,650.25 L 556.15625,650.0625 L 557.0625,647.5 L 556.5625,647.40625 L 561,641.3125 L 563.65625,638.84375 L 564.8125,638.09375 L 569.65625,633.5 L 568.90625,633.40625 L 571,632.59375 L 570,632.0625 L 572.0625,632.5625 L 572.75,631.6875 L 573.5,621.25 L 572.90625,619.5 L 572.15625,616.15625 L 565.4375,601.75 L 564.40625,598.15625 L 562.3125,596.9375 L 563.3125,596.5 L 561.65625,594.75 L 562.5,594.90625 L 561.4375,594.15625 L 561.84375,593.5 L 559.5,590.3125 L 560.1875,590.5625 L 559.90625,589.9375 L 558.8125,588.6875 L 558.65625,590 L 557.59375,589.75 L 558.09375,588.5625 L 556.3125,587.65625 L 556.90625,588.84375 L 556.59375,589.5 L 555.84375,588.90625 L 555.3125,588.8125 L 554.34375,587.8125 L 554.90625,586.5625 L 554.34375,586.3125 L 554.25,586.9375 L 551.65625,585.34375 L 552.25,586.65625 L 552.84375,586.34375 L 552.75,587.34375 L 550.25,585.5 L 549.75,586 L 546.5625,586.9375 L 546.09375,586.1875 L 544.90625,586.40625 L 544.3125,589.59375 L 543,590 L 543.40625,590.90625 L 542.25,591.8125 L 544,593.8125 L 541.5625,595.8125 L 540.8125,595.5625 L 539.59375,594.40625 L 539.25,592.3125 L 537.4375,592.0625 L 536.9375,590.34375 L 535.5,590.15625 L 535.84375,587.40625 L 535.40625,585.1875 L 534.8125,585.09375 L 536.8125,581.6875 L 536.25,580.8125 L 534.5,581.25 L 533.65625,579.3125 L 532.59375,579.5 L 532.75,578.5 L 529.84375,576.40625 L 528.8125,576.34375 z"
       id="east-midlands"
       style="fill:#ffc8c8;stroke:#000000;stroke-width:0.5" />
    <path
       d="M 596.65625,642.8125 L 595.90625,642.90625 L 595.75,643.9375 L 596.84375,643.1875 L 597.9375,643.9375 L 600.34375,643.6875 L 596.65625,642.8125 z M 595.90625,642.90625 L 594.4375,643.09375 L 595.8125,643.0625 L 595.90625,642.90625 z M 615.3125,642.84375 L 615,643.15625 L 614.84375,643.9375 L 616.5,643.1875 L 615.3125,642.84375 z M 616.5,643.1875 L 619.15625,644.15625 L 618.0625,644.5625 L 617.84375,645.5 L 615.6875,645.34375 L 615.75,644.65625 L 612.59375,645.34375 L 611.5,644.65625 L 611.40625,645.1875 L 608.6875,645.34375 L 610.5625,644.9375 L 609.75,644.25 L 609.59375,644.25 L 609.6875,644.3125 L 609.15625,644.8125 L 609.125,644.78125 L 609.59375,644.25 L 608,643.3125 L 607.09375,645.65625 L 607.90625,644.34375 L 608.59375,644.59375 L 608.59375,644.5625 L 608.875,644.6875 L 608.59375,644.59375 L 608.59375,645.34375 L 608.3125,645.9375 L 607,645.6875 L 607,643.9375 L 604.9375,643.6875 L 606.0625,643.40625 L 604.4375,643.65625 L 604.5,644.4375 L 602.34375,643.75 L 600.34375,643.84375 L 601,643.9375 L 600.8125,644.65625 L 599.09375,645.65625 L 599.09375,644.40625 L 597.5625,644.25 L 596.65625,643.84375 L 595.34375,644.65625 L 596.25,644.6875 L 594.84375,644.8125 L 595.25,644.15625 L 591.6875,644.5625 L 592.09375,644.8125 L 591.5,645.09375 L 591.5625,644.5625 L 589.75,644.3125 L 590.6875,645.25 L 589.8125,645.5 L 589.5,644.65625 L 588.59375,645.6875 L 587.90625,644.34375 L 586.5,644.59375 L 583.0625,648.25 L 580.5625,655.84375 L 580.75,659.15625 L 579.9375,659.6875 L 579.6875,658.9375 L 578.9375,659.65625 L 579.5625,659.9375 L 578.4375,660.1875 L 578.5,660.6875 L 577.4375,660.6875 L 576.15625,662.40625 L 576.59375,663.1875 L 576.0625,663.25 L 575.65625,664.5 L 576.1875,666.4375 L 575.65625,665.0625 L 572.84375,662.5625 L 570.15625,662.59375 L 568.90625,663.1875 L 567.59375,666.0625 L 569.4375,667.3125 L 563.90625,671.5625 L 562.8125,671.09375 L 562.8125,671.0625 L 560.34375,671.1875 L 557.5,673 L 555.75,672.6875 L 554.5625,674.09375 L 554.9375,677.65625 L 553.1875,679.5625 L 549.6875,680 L 549.59375,679.59375 L 547.5,678.59375 L 545.90625,679.5625 L 544.9375,679 L 542.40625,681.3125 L 539.8125,680.40625 L 538.9375,681.3125 L 538.0625,679.59375 L 534.5,681.5 L 532.5,679.5 L 529.4375,679.0625 L 528.5,680.5 L 524.84375,682.09375 L 521.6875,681.5 L 521.6875,682.0625 L 520.15625,682.15625 L 518.90625,683.09375 L 520.34375,684.40625 L 520.5625,685.5 L 518.84375,688.9375 L 520.15625,690.34375 L 523.6875,689.3125 L 524.34375,689.6875 L 524.90625,691.3125 L 524.09375,691.84375 L 525.3125,693.0625 L 525.40625,694.0625 L 524.5625,695.40625 L 528.59375,697.5 L 528.3125,699.34375 L 529.5625,701.8125 L 528.75,702.5625 L 527.59375,705.09375 L 528.25,705.5 L 525.0625,707.84375 L 524.65625,708 L 524.75,708.84375 L 523.1875,710.75 L 519.4375,711.59375 L 519.9375,712.1875 L 519.3125,713.6875 L 520.75,714.90625 L 520.34375,715.8125 L 521.5,716 L 521.59375,717.75 L 517.9375,718.40625 L 518.34375,718.6875 L 516.5625,721.4375 L 517.3125,723.5625 L 516.75,725 L 515.0625,725.4375 L 513.59375,723.34375 L 511.9375,722.75 L 509.09375,723.9375 L 510.3125,728.40625 L 508.3125,732 L 510,732.65625 L 511.0625,733.40625 L 510.90625,736.3125 L 510.1875,736.5625 L 510.65625,738.15625 L 512.5,738.59375 L 513.59375,741.09375 L 512.6875,743.15625 L 511,744.40625 L 508.5625,747.9375 L 510.3125,749.1875 L 510.5,750.6875 L 509.8125,751.25 L 510.3125,752.09375 L 509.09375,753.3125 L 510.25,756.3125 L 509.75,756.65625 L 509.1875,758.15625 L 508.5,758.09375 L 508.65625,759.4375 L 507.8125,759.65625 L 506.5625,763.25 L 507.25,764.25 L 508.5625,764.0625 L 510,765.65625 L 512.15625,765.75 L 512.9375,766.8125 L 514.65625,767.34375 L 517.84375,771.5625 L 517.4375,772.3125 L 516.8125,772.09375 L 516.5625,771.59375 L 514.90625,774.3125 L 511.4375,772.90625 L 510.4375,773.65625 L 509.09375,773.40625 L 507.15625,770.6875 L 507.6875,769.8125 L 507.0625,768.84375 L 505.65625,768.9375 L 503.75,770.65625 L 505.25,773.25 L 506.25,772.9375 L 507.90625,775.15625 L 507.59375,776 L 508.8125,778.59375 L 512.9375,780.8125 L 514.6875,780.3125 L 515.6875,782.0625 L 516.3125,781.59375 L 516.9375,782.1875 L 517.1875,783.40625 L 516.40625,784.65625 L 517.6875,786.25 L 517.59375,788.0625 L 519.09375,787.84375 L 519.0625,788.1875 L 520,788.0625 L 520.40625,788.8125 L 519.8125,789.65625 L 519.34375,789.40625 L 519.25,790.4375 L 518.3125,790.1875 L 518.6875,791.4375 L 518.15625,792.6875 L 519.40625,796.25 L 520.90625,796.8125 L 520.90625,793.4375 L 523.8125,795.40625 L 524.90625,794.5 L 527.40625,795.1875 L 529.15625,794.65625 L 529.84375,794.34375 L 530.1875,794 L 533.3125,792.09375 L 534.0625,792.4375 L 534.6875,792.59375 L 536.90625,791.5625 L 537.34375,791.84375 L 537.75,790.3125 L 540.34375,789.65625 L 540.90625,788.65625 L 541.75,789.3125 L 542.34375,788.8125 L 543,788.3125 L 543.59375,786.65625 L 546.65625,786.4375 L 547.5,786.09375 L 553.9375,787.15625 L 554,790.9375 L 556.5625,791.84375 L 556.34375,792.8125 L 557.6875,794.1875 L 559.90625,795.3125 L 561,795.25 L 561.1875,794.3125 L 563.65625,793.40625 L 564.25,793.15625 L 568.25,792.8125 L 568.5,792.84375 L 570.09375,792.0625 L 572.09375,793.5625 L 572.90625,794.5625 L 572.25,795.3125 L 573.3125,795.5 L 574.8125,799.3125 L 576.34375,799.09375 L 577.90625,801.8125 L 577.09375,801.8125 L 573.25,802.84375 L 573.15625,804.40625 L 572.5,804.4375 L 572.15625,803.25 L 571.90625,804.34375 L 571.34375,804.3125 L 571.75,805.5625 L 570.6875,805.75 L 570.9375,806.5 L 569.8125,807.0625 L 569.65625,807.59375 L 574.5625,810.5625 L 575.65625,809.34375 L 577.34375,809.15625 L 578.65625,811.40625 L 579.90625,811.5 L 585,810.15625 L 585.65625,806.1875 L 585.3125,805.8125 L 586.3125,805.1875 L 589.90625,805.25 L 592.09375,804.34375 L 590.8125,804.0625 L 589.6875,801.75 L 589.59375,801.25 L 588.65625,800.5625 L 589.65625,801.15625 L 590.4375,802.5625 L 591.25,803.8125 L 592,803.5 L 592.9375,804.65625 L 594.3125,804.8125 L 598.59375,803.15625 L 597.34375,803.40625 L 598.1875,802.8125 L 595.9375,802.40625 L 596.15625,801.8125 L 595.0625,801.65625 L 593.3125,800.84375 L 597.75,801.40625 L 598.9375,801 L 602,801.5625 L 607.5625,802.40625 L 608.90625,802.75 L 613,798.8125 L 610.75,798.3125 L 610.0625,796.5 L 609.1875,797.1875 L 609.84375,795.6875 L 607.84375,796.0625 L 610.6875,794.40625 L 609.75,793.1875 L 610.8125,794.25 L 613.90625,794.09375 L 613.8125,792.3125 L 608.1875,791.5625 L 606.75,790.25 L 605,791 L 603.9375,790.5 L 603.5625,789.6875 L 605.5625,789.34375 L 606.59375,789.4375 L 608.90625,791.40625 L 609.4375,790.9375 L 613.34375,791.6875 L 616.40625,791.4375 L 618.5625,789.84375 L 618.34375,787.15625 L 619.25,784.65625 L 618.40625,782.59375 L 619.0625,779.5 L 617.65625,777.75 L 615.3125,778.1875 L 612.4375,781.40625 L 610.1875,780.90625 L 608.4375,781.3125 L 608.65625,782.40625 L 606.6875,783.0625 L 606.09375,784.40625 L 604.8125,784.8125 L 604.8125,784.09375 L 605.5,784.34375 L 605.65625,783.3125 L 606.84375,782.40625 L 602.90625,782 L 601.15625,780.15625 L 602.4375,780.90625 L 602.9375,779.34375 L 604.4375,780.1875 L 605.59375,779.8125 L 605.84375,779.4375 L 606.09375,778.6875 L 607.09375,779.0625 L 607.1875,778.5 L 608.0625,779.3125 L 608.25,778.34375 L 609.75,779 L 612.0625,778.75 L 611.9375,777.9375 L 612.59375,778.3125 L 614.34375,776.75 L 612.8125,776.0625 L 611.5625,776.0625 L 611.4375,775.5 L 612.5,775.6875 L 611.09375,775.3125 L 612.5625,774.90625 L 612.75,775.5625 L 615.09375,775.75 L 613.84375,774.40625 L 613.1875,773 L 615,774.84375 L 615.15625,774 L 615.59375,771.59375 L 616.09375,772.09375 L 617.8125,771.34375 L 617.3125,771.15625 L 620,770.5 L 618.1875,769.5625 L 619.5625,769.5 L 618.75,768.3125 L 620.8125,769.9375 L 620.3125,766.84375 L 621.34375,767.59375 L 620.8125,768.59375 L 621.65625,770.0625 L 623.84375,771.1875 L 626.09375,770.34375 L 625.84375,769.59375 L 626.59375,769.3125 L 626.5,769.90625 L 625.75,770.84375 L 625.4375,771.5 L 623.3125,771.59375 L 624.6875,772.8125 L 624.84375,774.5 L 624.15625,772.9375 L 624.90625,774.8125 L 628.59375,774.25 L 631.15625,773.90625 L 638,769 L 641.25,764.4375 L 641.4375,762.84375 L 639.84375,762.59375 L 639.9375,763.8125 L 639.90625,763.6875 L 639.8125,763.6875 L 639.84375,763.65625 L 639.8125,763.59375 L 639.90625,763.65625 L 639.84375,763.5 L 639.65625,763.15625 L 639.40625,763.09375 L 639.34375,763.15625 L 639.1875,763.0625 L 639.09375,763.0625 L 638.9375,763 L 638.90625,763.0625 L 638.84375,763.15625 L 638.84375,763.1875 L 638.8125,763.3125 L 638.8125,763.40625 L 638.8125,763.4375 L 639.0625,763.5 L 639.09375,763.5625 L 639.3125,763.5625 L 639.5,763.75 L 639.5,763.90625 L 639.65625,764 L 639.59375,764.0625 L 638.90625,764.09375 L 638.75,764.9375 L 638.6875,764.25 L 637.84375,764.34375 L 637.59375,765.09375 L 637.1875,763.1875 L 636.15625,763.5625 L 636.90625,762.34375 L 635.84375,763.4375 L 633.84375,763.4375 L 635.9375,762.59375 L 635.15625,761.9375 L 636.0625,761.3125 L 637.09375,761.25 L 636,760.65625 L 636.90625,759.8125 L 637.25,760 L 637.25,759.9375 L 637.3125,760.0625 L 638.34375,760.5625 L 638.6875,758.1875 L 640.5,756.25 L 641.5,756.09375 L 641.0625,754.59375 L 640.25,755.75 L 638.09375,754.84375 L 636.8125,755.90625 L 636.15625,755.90625 L 636.25,755.3125 L 634.1875,755.90625 L 633.6875,755.8125 L 632.9375,755.15625 L 629.5625,756.15625 L 625.65625,755.6875 L 624.65625,754.25 L 625.75,755.40625 L 627.1875,754.1875 L 630.1875,754.65625 L 632.34375,752.6875 L 634.0625,754.25 L 635.59375,754.15625 L 636.25,754.4375 L 637.75,753.4375 L 639.9375,753.9375 L 639.3125,750.5 L 635.5,749.6875 L 632.75,747.90625 L 631.40625,745.8125 L 633.15625,747.09375 L 635.6875,748.59375 L 638.5625,749.5625 L 638.59375,748.84375 L 640.15625,749.90625 L 640.40625,752.5 L 643,754.40625 L 643.0625,756.40625 L 644.65625,753.65625 L 647.5,751.15625 L 647.65625,749.9375 L 645.5625,748.1875 L 647.40625,748.84375 L 647.90625,750.15625 L 650.25,748.09375 L 652.15625,743.65625 L 651.40625,743.75 L 654.65625,740.6875 L 655.09375,740.75 L 655.6875,740.09375 L 657.84375,739.40625 L 653.8125,742 L 652.1875,744.15625 L 653.8125,742.25 L 660.0625,738.40625 L 662.15625,727.59375 L 662.3125,718.25 L 664.4375,713.84375 L 665,713.59375 L 668.15625,703.9375 L 668.15625,699.0625 L 669.5625,696 L 669.90625,695 L 668.09375,689.5 L 667.34375,685.9375 L 667.75,685.15625 L 667.4375,684.5625 L 667.84375,685 L 667.25,676.90625 L 664.59375,669.5 L 662.59375,666.6875 L 656.0625,660.5 L 645.5,652.09375 L 639.6875,648.40625 L 634.6875,646.5625 L 625.5625,645.6875 L 616.5,643.1875 z M 637.3125,760.0625 L 637.25,760 L 637.34375,761.5625 L 638.34375,761.09375 L 637.3125,760.0625 z M 639.5,761.65625 L 640.0625,762.59375 L 640.5,762.3125 L 639.5,761.65625 z M 639.34375,762.09375 L 637.34375,762.1875 L 637.0625,762.90625 L 638.34375,763.5625 L 639.34375,762.09375 z M 639.4375,762.1875 L 639.40625,762.3125 L 639.3125,762.5 L 639.34375,762.65625 L 639.3125,762.8125 L 639.15625,762.84375 L 639,762.75 L 639,762.8125 L 639,762.84375 L 639.0625,762.84375 L 639,762.90625 L 639.5,763 L 639.59375,763.0625 L 639.59375,762.6875 L 639.59375,762.5625 L 639.5625,762.34375 L 639.4375,762.1875 z M 639.9375,763.90625 L 639.9375,764.0625 L 639.6875,764.0625 L 639.90625,763.9375 L 639.9375,763.90625 z M 619.84375,770.9375 L 618.15625,771.6875 L 618.1875,771.1875 L 615.3125,774.3125 L 615.6875,774.90625 L 618.84375,774.5 L 621.4375,773.1875 L 622.5,771.84375 L 619.84375,770.9375 z M 603.5,780.09375 L 602.65625,781.34375 L 604.09375,781.3125 L 603.5,780.09375 z M 605.8125,780.65625 L 607,781.3125 L 608.0625,780.84375 L 605.8125,780.65625 z M 620.0625,791.5 L 614.4375,792.40625 L 613.9375,794.5625 L 612.0625,794.75 L 612.65625,796.09375 L 611.6875,796.75 L 611.3125,798 L 612.3125,798.34375 L 612.0625,797.75 L 613.6875,798.75 L 618.09375,794.84375 L 620.0625,791.5 z M 611.3125,794.5625 L 610.0625,795.65625 L 610.9375,797.90625 L 612,795.6875 L 611.90625,794.65625 L 611.3125,794.5625 z"
       id="east-england"
       style="fill:#ffc8c8;stroke:#000000;stroke-width:0.5" />
  </g>
</svg>
